<svg width="15" height="15" viewBox="0 0 15 15" fill="none" xmlns="http://www.w3.org/2000/svg">
<rect width="15" height="15" rx="7.5" fill="#F0F0F0"/>
<path d="M10.3 4.3H9.5V3.9C9.5 3.79391 9.45786 3.69217 9.38284 3.61716C9.30783 3.54214 9.20609 3.5 9.1 3.5C8.99391 3.5 8.89217 3.54214 8.81716 3.61716C8.74214 3.69217 8.7 3.79391 8.7 3.9V4.3H6.3V3.9C6.3 3.79391 6.25786 3.69217 6.18284 3.61716C6.10783 3.54214 6.00609 3.5 5.9 3.5C5.79391 3.5 5.69217 3.54214 5.61716 3.61716C5.54214 3.69217 5.5 3.79391 5.5 3.9V4.3H4.7C4.38174 4.3 4.07652 4.42643 3.85147 4.65147C3.62643 4.87652 3.5 5.18174 3.5 5.5V10.3C3.5 10.6183 3.62643 10.9235 3.85147 11.1485C4.07652 11.3736 4.38174 11.5 4.7 11.5H10.3C10.6183 11.5 10.9235 11.3736 11.1485 11.1485C11.3736 10.9235 11.5 10.6183 11.5 10.3V5.5C11.5 5.18174 11.3736 4.87652 11.1485 4.65147C10.9235 4.42643 10.6183 4.3 10.3 4.3ZM10.7 10.3C10.7 10.4061 10.6579 10.5078 10.5828 10.5828C10.5078 10.6579 10.4061 10.7 10.3 10.7H4.7C4.59391 10.7 4.49217 10.6579 4.41716 10.5828C4.34214 10.5078 4.3 10.4061 4.3 10.3V7.5H10.7V10.3ZM10.7 6.7H4.3V5.5C4.3 5.39391 4.34214 5.29217 4.41716 5.21716C4.49217 5.14214 4.59391 5.1 4.7 5.1H5.5V5.5C5.5 5.60609 5.54214 5.70783 5.61716 5.78284C5.69217 5.85786 5.79391 5.9 5.9 5.9C6.00609 5.9 6.10783 5.85786 6.18284 5.78284C6.25786 5.70783 6.3 5.60609 6.3 5.5V5.1H8.7V5.5C8.7 5.60609 8.74214 5.70783 8.81716 5.78284C8.89217 5.85786 8.99391 5.9 9.1 5.9C9.20609 5.9 9.30783 5.85786 9.38284 5.78284C9.45786 5.70783 9.5 5.60609 9.5 5.5V5.1H10.3C10.4061 5.1 10.5078 5.14214 10.5828 5.21716C10.6579 5.29217 10.7 5.39391 10.7 5.5V6.7Z" fill="#5B5B5B"/>
</svg>
