<svg width="15" height="15" viewBox="0 0 15 15" fill="none" xmlns="http://www.w3.org/2000/svg">
<rect width="15" height="15" rx="7.5" fill="#F0F0F0"/>
<path d="M6.67711 3.53645C6.49292 3.53645 6.36883 3.68258 6.36883 3.86259V5.41606C6.36883 5.59272 6.27799 5.67722 6.13871 5.67722C6.01149 5.67722 5.93644 5.57227 5.93644 5.44766L5.9295 3.83391C5.9295 3.63028 5.7518 3.5 5.58689 3.5C5.42192 3.5 5.2443 3.63028 5.2443 3.83391V5.44766C5.2443 5.57228 5.16224 5.67722 5.035 5.67722C4.89589 5.67722 4.80499 5.59272 4.80499 5.41606V3.86259C4.80499 3.68258 4.68088 3.53645 4.49669 3.53645C4.31236 3.53677 4.21419 3.69541 4.19421 3.851C4.17422 4.00673 4.07194 5.11892 4.06074 5.82975C4.04938 6.54075 4.54849 6.95658 4.83283 7.08867C5.02724 7.17897 5.16796 7.37316 5.16796 7.6067L5.05164 11.5H6.1221L6.00578 7.6067C6.00578 7.37317 6.14641 7.17898 6.34083 7.08867C6.62524 6.95658 7.12436 6.54075 7.11307 5.82975C7.10178 5.11892 6.99966 4.00673 6.97952 3.851C6.95946 3.69541 6.86138 3.53677 6.67711 3.53645Z" fill="#5B5B5B"/>
<path d="M9.41297 3.56055C8.67237 3.56055 7.88672 4.3507 7.88672 5.59192C7.88672 6.30292 8.42405 6.88014 8.65897 7.08773C8.88869 7.29092 8.99409 7.37222 8.99409 7.60577L8.87778 11.4991H9.94823L9.83184 7.60577C9.83184 7.37223 9.93741 7.29092 10.1671 7.08773C10.4017 6.88012 10.9391 6.30292 10.9391 5.59192C10.9391 4.3507 10.1536 3.56055 9.41297 3.56055Z" fill="#5B5B5B"/>
</svg>
