<svg width="15" height="15" viewBox="0 0 15 15" fill="none" xmlns="http://www.w3.org/2000/svg">
<rect width="15" height="15" rx="7.5" fill="#F0F0F0"/>
<path d="M9.9624 5.5918L9.71533 6.44043H4.73096L4.97803 5.5918H9.9624ZM7.72803 11.5L4.88672 8.18066L4.88135 7.51465H6.19189C6.57145 7.51465 6.88477 7.45199 7.13184 7.32666C7.38249 7.19775 7.57048 7.02409 7.6958 6.80566C7.82113 6.58724 7.88379 6.34196 7.88379 6.06982C7.88379 5.76546 7.82471 5.4987 7.70654 5.26953C7.58838 5.03678 7.40218 4.85596 7.14795 4.72705C6.8973 4.59456 6.56787 4.52832 6.15967 4.52832H4.7417L4.99414 3.67969H6.15967C6.78271 3.67969 7.29655 3.77458 7.70117 3.96436C8.10938 4.15055 8.41374 4.42269 8.61426 4.78076C8.81478 5.13883 8.91504 5.5721 8.91504 6.08057C8.91504 6.51742 8.83089 6.90951 8.6626 7.25684C8.49788 7.60059 8.22396 7.87093 7.84082 8.06787C7.46126 8.26481 6.94922 8.36328 6.30469 8.36328L8.94727 11.4355V11.5H7.72803ZM9.9624 3.67969L9.71533 4.52832H5.69775L5.94482 3.67969H9.9624Z" fill="#5B5B5B"/>
</svg>
