<svg width="97" height="49" viewBox="0 0 97 49" fill="none" xmlns="http://www.w3.org/2000/svg">
<g filter="url(#filter0_d_100_876)">
<path d="M21.6337 26.3256C20.8509 27.4562 19.916 28.2825 18.8288 28.8043C17.6981 29.2827 16.4588 29.5218 15.1107 29.5218C11.8927 29.5218 9.34868 28.4564 7.47874 26.3256C5.56533 24.2382 4.60862 21.3681 4.60862 17.7152C4.60862 14.1058 5.54358 11.2574 7.41351 9.17004C9.37042 6.9957 11.9579 5.90853 15.1759 5.90853C17.9591 5.90853 20.2639 6.58258 22.0903 7.93067C23.8733 9.36573 24.9387 11.2357 25.2866 13.5405H22.1555C21.2423 13.5405 20.5683 13.1273 20.1334 12.3011C19.829 11.7792 19.3941 11.3009 18.8288 10.866C17.9591 10.2572 16.8067 9.9528 15.3716 9.9528C13.5017 9.9528 12.0231 10.6268 10.9359 11.9749C9.84877 13.41 9.30519 15.3234 9.30519 17.7152C9.30519 20.1504 9.87052 22.0639 11.0012 23.4554C12.0883 24.8035 13.6321 25.4776 15.6325 25.4776C17.1111 25.4776 18.3287 25.0644 19.2854 24.2382C20.2421 23.3685 20.8509 22.1726 21.1118 20.6505H18.3722C17.7199 20.6505 17.1545 20.4331 16.6762 19.9982C16.2413 19.5199 16.0239 18.9546 16.0239 18.3023V16.802H25.3518V29H24.1124C22.8948 29 22.1338 28.3912 21.8294 27.1736L21.6337 26.3256ZM38.3978 23.6511H41.6593C41.181 25.4776 40.2678 26.8691 38.9197 27.8259C37.5716 28.8261 35.8756 29.3262 33.8317 29.3262C31.353 29.3262 29.4178 28.5216 28.0262 26.9126C26.6347 25.3471 25.9389 23.1075 25.9389 20.1939C25.9389 17.4108 26.6129 15.2364 27.961 13.6709C29.3526 12.0619 31.2877 11.2574 33.7665 11.2574C36.3757 11.2574 38.3978 12.0402 39.8329 13.6057C41.2245 15.2147 41.9203 17.4543 41.9203 20.3244C41.9203 20.4983 41.9203 20.6505 41.9203 20.781C41.9203 20.9115 41.9203 20.9984 41.9203 21.0419C41.9203 21.2594 41.8985 21.4116 41.855 21.4985H30.5702C30.6137 22.8466 30.9398 23.8468 31.5487 24.4991C32.114 25.1949 32.962 25.5428 34.0926 25.5428C34.8319 25.5428 35.4625 25.3906 35.9843 25.0862C36.1148 25.0427 36.2235 24.9775 36.3105 24.8905C36.4409 24.76 36.5714 24.6296 36.7018 24.4991C36.7453 24.3687 36.8975 24.1947 37.1585 23.9773C37.4629 23.7598 37.876 23.6511 38.3978 23.6511ZM30.5702 18.5632H37.2237C37.1367 17.389 36.8323 16.5193 36.3105 15.954C35.7451 15.3452 34.9406 15.0408 33.8969 15.0408C32.9402 15.0408 32.1575 15.3452 31.5487 15.954C30.9398 16.5628 30.6137 17.4325 30.5702 18.5632ZM42.2464 23.2597H46.6821C46.7255 24.1295 47.0517 24.7818 47.6605 25.2167C48.3128 25.6515 49.1825 25.869 50.2697 25.869C51.0525 25.869 51.7265 25.7168 52.2918 25.4123C52.8137 25.1079 53.0746 24.6948 53.0746 24.173C53.0746 23.3902 52.1614 22.8031 50.3349 22.4118C49.5522 22.2813 48.9651 22.1508 48.5737 22.0204C46.2689 21.455 44.7252 20.781 43.9424 19.9982C43.0727 19.2155 42.6378 18.1718 42.6378 16.8672C42.6378 15.2147 43.2683 13.8449 44.5295 12.7577C45.8341 11.7575 47.53 11.2574 49.6174 11.2574C51.8787 11.2574 53.6834 11.7575 55.0315 12.7577C56.2926 13.8449 56.9667 15.2582 57.0536 16.9977H54.2488C53.4225 16.9977 52.7919 16.628 52.3571 15.8887C52.1831 15.7148 52.0092 15.5408 51.8352 15.3669C51.3134 14.9755 50.5959 14.7798 49.6826 14.7798C48.8129 14.7798 48.1606 14.9103 47.7257 15.1712C47.3344 15.4321 47.1387 15.8235 47.1387 16.3454C47.1387 17.0411 48.2693 17.6282 50.5306 18.1066C50.7916 18.1935 51.009 18.2588 51.1829 18.3023C51.4004 18.3457 51.5961 18.3675 51.77 18.3675C53.9878 18.9328 55.5316 19.5851 56.4013 20.3244C57.2276 21.1072 57.6407 22.1508 57.6407 23.4554C57.6407 25.3689 56.9449 26.8474 55.5534 27.8911C54.2488 28.8478 52.2918 29.3262 49.6826 29.3262C47.2039 29.3262 45.3557 28.8261 44.1381 27.8259C42.877 26.8257 42.2464 25.3689 42.2464 23.4554V23.2597ZM66.0554 29C64.6203 29.087 63.0548 29.0652 61.3588 28.9348C59.7063 28.8043 58.8801 27.7389 58.8801 25.7385V6.56083H61.2284C61.7937 6.56083 62.2938 6.77827 62.7287 7.21314C63.1635 7.648 63.381 8.16984 63.381 8.77866V11.714H66.0554V12.6272C66.0554 13.2795 65.838 13.8231 65.4031 14.258C64.9682 14.6494 64.4464 14.8451 63.8376 14.8451H63.381V24.4991C63.381 25.2384 63.8158 25.608 64.6856 25.608H66.0554V29ZM78.5144 23.6511H81.7759C81.2975 25.4776 80.3843 26.8691 79.0362 27.8259C77.6881 28.8261 75.9921 29.3262 73.9483 29.3262C71.4695 29.3262 69.5343 28.5216 68.1428 26.9126C66.7512 25.3471 66.0554 23.1075 66.0554 20.1939C66.0554 17.4108 66.7294 15.2364 68.0775 13.6709C69.4691 12.0619 71.4043 11.2574 73.883 11.2574C76.4922 11.2574 78.5144 12.0402 79.9494 13.6057C81.341 15.2147 82.0368 17.4543 82.0368 20.3244C82.0368 20.4983 82.0368 20.6505 82.0368 20.781C82.0368 20.9115 82.0368 20.9984 82.0368 21.0419C82.0368 21.2594 82.015 21.4116 81.9716 21.4985H70.6867C70.7302 22.8466 71.0564 23.8468 71.6652 24.4991C72.2305 25.1949 73.0785 25.5428 74.2092 25.5428C74.9484 25.5428 75.579 25.3906 76.1008 25.0862C76.2313 25.0427 76.34 24.9775 76.427 24.8905C76.5575 24.76 76.6879 24.6296 76.8184 24.4991C76.8619 24.3687 77.0141 24.1947 77.275 23.9773C77.5794 23.7598 77.9925 23.6511 78.5144 23.6511ZM70.6867 18.5632H77.3402C77.2532 17.389 76.9488 16.5193 76.427 15.954C75.8617 15.3452 75.0572 15.0408 74.0135 15.0408C73.0568 15.0408 72.274 15.3452 71.6652 15.954C71.0564 16.5628 70.7302 17.4325 70.6867 18.5632ZM82.7543 29V20.5853C82.7543 18.8893 82.9935 17.476 83.4718 16.3454C83.9937 15.1712 84.6895 14.2362 85.5592 13.5405C86.3855 12.8882 87.3422 12.4098 88.4293 12.1054C89.56 11.801 90.7124 11.6488 91.8865 11.6488C91.9735 11.6488 92.0822 11.6488 92.2127 11.6488C92.3431 11.6488 92.4519 11.6488 92.5388 11.6488V16.2801H91.0385C89.7774 16.2801 88.8425 16.5845 88.2336 17.1933C87.6248 17.8022 87.3204 18.7589 87.3204 20.0635V29H82.7543Z" fill="#B4B4B4"/>
<path d="M8.78657 32.2874C8.07849 32.234 7.72445 32.5179 7.72445 33.1391V33.1892H8.78657V34.4317H7.72445V38.1992H6.43186V34.4317H5.71042V33.1892H6.43186V33.1391C6.43186 32.431 6.62893 31.8933 7.02305 31.5259C7.41717 31.1585 8.00501 30.9981 8.78657 31.0449V32.2874ZM13.7622 37.578C13.2479 38.0857 12.6199 38.3395 11.8785 38.3395C11.137 38.3395 10.5091 38.0857 9.99469 37.578C9.48701 37.0636 9.23317 36.4357 9.23317 35.6942C9.23317 34.9527 9.48701 34.3281 9.99469 33.8205C10.5091 33.3061 11.137 33.0489 11.8785 33.0489C12.6199 33.0489 13.2479 33.3061 13.7622 33.8205C14.2766 34.3281 14.5338 34.9527 14.5338 35.6942C14.5338 36.4357 14.2766 37.0636 13.7622 37.578ZM10.9065 36.6862C11.167 36.9467 11.491 37.077 11.8785 37.077C12.2659 37.077 12.5899 36.9467 12.8504 36.6862C13.1109 36.4257 13.2412 36.095 13.2412 35.6942C13.2412 35.2934 13.1109 34.9627 12.8504 34.7022C12.5899 34.4417 12.2659 34.3114 11.8785 34.3114C11.491 34.3114 11.167 34.4417 10.9065 34.7022C10.6527 34.9627 10.5258 35.2934 10.5258 35.6942C10.5258 36.095 10.6527 36.4257 10.9065 36.6862ZM20.0122 37.578C19.4979 38.0857 18.87 38.3395 18.1285 38.3395C17.387 38.3395 16.7591 38.0857 16.2447 37.578C15.737 37.0636 15.4832 36.4357 15.4832 35.6942C15.4832 34.9527 15.737 34.3281 16.2447 33.8205C16.7591 33.3061 17.387 33.0489 18.1285 33.0489C18.87 33.0489 19.4979 33.3061 20.0122 33.8205C20.5266 34.3281 20.7838 34.9527 20.7838 35.6942C20.7838 36.4357 20.5266 37.0636 20.0122 37.578ZM17.1565 36.6862C17.417 36.9467 17.741 37.077 18.1285 37.077C18.5159 37.077 18.8399 36.9467 19.1004 36.6862C19.3609 36.4257 19.4912 36.095 19.4912 35.6942C19.4912 35.2934 19.3609 34.9627 19.1004 34.7022C18.8399 34.4417 18.5159 34.3114 18.1285 34.3114C17.741 34.3114 17.417 34.4417 17.1565 34.7022C16.9027 34.9627 16.7758 35.2934 16.7758 35.6942C16.7758 36.095 16.9027 36.4257 17.1565 36.6862ZM25.7913 31.1852H27.0839V38.1992H25.7913V37.608C25.4105 38.0957 24.8695 38.3395 24.168 38.3395C23.4934 38.3395 22.9155 38.0857 22.4346 37.578C21.9603 37.0636 21.7232 36.4357 21.7232 35.6942C21.7232 34.9527 21.9603 34.3281 22.4346 33.8205C22.9155 33.3061 23.4934 33.0489 24.168 33.0489C24.8695 33.0489 25.4105 33.2927 25.7913 33.7804V31.1852ZM23.4065 36.7163C23.6737 36.9768 24.0077 37.107 24.4085 37.107C24.8093 37.107 25.14 36.9768 25.4005 36.7163C25.661 36.4491 25.7913 36.1084 25.7913 35.6942C25.7913 35.28 25.661 34.9427 25.4005 34.6822C25.14 34.415 24.8093 34.2814 24.4085 34.2814C24.0077 34.2814 23.6737 34.415 23.4065 34.6822C23.146 34.9427 23.0157 35.28 23.0157 35.6942C23.0157 36.1084 23.146 36.4491 23.4065 36.7163ZM30.27 36.8165L29.5185 39.602H28.4664L28.8672 36.8165H30.27ZM35.654 34.612C35.654 34.7456 35.7408 34.8559 35.9145 34.9427C36.0949 35.0229 36.312 35.0963 36.5658 35.1631C36.8197 35.2233 37.0735 35.3034 37.3273 35.4036C37.5812 35.4971 37.7949 35.6575 37.9686 35.8846C38.149 36.1117 38.2392 36.3956 38.2392 36.7363C38.2392 37.2507 38.0454 37.6481 37.658 37.9287C37.2772 38.2026 36.7996 38.3395 36.2251 38.3395C35.1964 38.3395 34.495 37.942 34.1209 37.1471L35.2432 36.5159C35.3901 36.9501 35.7175 37.1672 36.2251 37.1672C36.6861 37.1672 36.9165 37.0235 36.9165 36.7363C36.9165 36.6027 36.8263 36.4958 36.646 36.4157C36.4723 36.3288 36.2585 36.252 36.0047 36.1852C35.7509 36.1184 35.497 36.0349 35.2432 35.9347C34.9893 35.8345 34.7722 35.6775 34.5919 35.4637C34.4182 35.2433 34.3314 34.9694 34.3314 34.6421C34.3314 34.1478 34.5117 33.7603 34.8724 33.4798C35.2398 33.1925 35.6941 33.0489 36.2352 33.0489C36.6426 33.0489 37.0134 33.1424 37.3474 33.3295C37.6814 33.5098 37.9452 33.7704 38.139 34.111L37.0368 34.7122C36.8764 34.3716 36.6092 34.2012 36.2352 34.2012C36.0682 34.2012 35.9279 34.238 35.8143 34.3114C35.7074 34.3849 35.654 34.4851 35.654 34.612ZM42.09 34.4317H40.9577V36.5159C40.9577 36.6895 41.0012 36.8165 41.088 36.8966C41.1748 36.9768 41.3018 37.0235 41.4688 37.0369C41.6358 37.0436 41.8428 37.0402 42.09 37.0269V38.1992C41.2016 38.2994 40.5736 38.2159 40.2062 37.9487C39.8455 37.6815 39.6651 37.2039 39.6651 36.5159V34.4317H38.7934V33.1892H39.6651V32.1772L40.9577 31.7864V33.1892H42.09V34.4317ZM46.953 33.1892H48.2456V38.1992H46.953V37.608C46.5656 38.0957 46.0211 38.3395 45.3197 38.3395C44.6517 38.3395 44.0773 38.0857 43.5963 37.578C43.122 37.0636 42.8849 36.4357 42.8849 35.6942C42.8849 34.9527 43.122 34.3281 43.5963 33.8205C44.0773 33.3061 44.6517 33.0489 45.3197 33.0489C46.0211 33.0489 46.5656 33.2927 46.953 33.7804V33.1892ZM44.5682 36.7163C44.8288 36.9768 45.1594 37.107 45.5602 37.107C45.961 37.107 46.2917 36.9768 46.5522 36.7163C46.8194 36.4491 46.953 36.1084 46.953 35.6942C46.953 35.28 46.8194 34.9427 46.5522 34.6822C46.2917 34.415 45.961 34.2814 45.5602 34.2814C45.1594 34.2814 44.8288 34.415 44.5682 34.6822C44.3077 34.9427 44.1775 35.28 44.1775 35.6942C44.1775 36.1084 44.3077 36.4491 44.5682 36.7163ZM52.9848 33.1892H54.3676L52.544 38.1992C52.2834 38.9207 51.9361 39.4417 51.5019 39.7623C51.0743 40.0897 50.5399 40.2366 49.8987 40.2032V39.0008C50.246 39.0075 50.5199 38.934 50.7203 38.7804C50.9274 38.6267 51.091 38.3796 51.2113 38.0389L49.1572 33.1892H50.57L51.8726 36.5559L52.9848 33.1892ZM64.0308 37.7984L62.9286 38.4297L62.2874 37.7383C61.7463 38.1391 61.1183 38.3395 60.4036 38.3395C59.6821 38.3395 59.091 38.1525 58.63 37.7784C58.1758 37.3976 57.9487 36.8899 57.9487 36.2553C57.9487 35.8412 58.0489 35.4571 58.2493 35.103C58.4497 34.749 58.7403 34.4617 59.121 34.2413C58.8939 33.8806 58.7803 33.4898 58.7803 33.069C58.7803 32.4744 58.9874 31.9901 59.4016 31.616C59.8157 31.2353 60.3401 31.0449 60.9747 31.0449C61.4757 31.0449 61.9233 31.1752 62.3174 31.4357C62.7182 31.6895 63.0155 32.0603 63.2092 32.5479L62.0268 33.2293C61.8331 32.6682 61.4891 32.3876 60.9948 32.3876C60.7543 32.3876 60.5539 32.4577 60.3936 32.598C60.2399 32.7383 60.1631 32.9153 60.1631 33.1291C60.1631 33.3161 60.2065 33.4865 60.2934 33.6401C60.3869 33.7937 60.5338 33.9774 60.7342 34.1912L62.2373 35.8345C62.3842 35.5205 62.4978 35.1331 62.5779 34.6722L63.7403 35.3335C63.6133 35.8746 63.4096 36.3656 63.129 36.8064L64.0308 37.7984ZM60.4938 37.067C60.8411 37.067 61.1517 36.9835 61.4256 36.8165L59.9126 35.1732C59.8992 35.1598 59.8926 35.1498 59.8926 35.1431C59.5252 35.3702 59.3415 35.6942 59.3415 36.115C59.3415 36.4023 59.4383 36.6328 59.632 36.8064C59.8324 36.9801 60.1197 37.067 60.4938 37.067ZM73.4783 33.0489C74.0527 33.0489 74.5103 33.236 74.851 33.61C75.1984 33.9841 75.372 34.4851 75.372 35.113V38.1992H74.0795V35.2032C74.0795 34.9026 74.006 34.6688 73.859 34.5018C73.7121 34.3348 73.505 34.2513 73.2378 34.2513C72.9439 34.2513 72.7134 34.3482 72.5464 34.5419C72.3861 34.7356 72.3059 35.0162 72.3059 35.3836V38.1992H71.0133V35.2032C71.0133 34.9026 70.9398 34.6688 70.7929 34.5018C70.6459 34.3348 70.4388 34.2513 70.1716 34.2513C69.8844 34.2513 69.6539 34.3482 69.4803 34.5419C69.3133 34.7356 69.2298 35.0162 69.2298 35.3836V38.1992H67.9372V33.1892H69.2298V33.7203C69.5304 33.2727 69.9946 33.0489 70.6225 33.0489C71.2371 33.0489 71.6913 33.2894 71.9853 33.7704C72.3193 33.2894 72.8169 33.0489 73.4783 33.0489ZM81.039 37.578C80.5246 38.0857 79.8967 38.3395 79.1552 38.3395C78.4138 38.3395 77.7858 38.0857 77.2715 37.578C76.7638 37.0636 76.5099 36.4357 76.5099 35.6942C76.5099 34.9527 76.7638 34.3281 77.2715 33.8205C77.7858 33.3061 78.4138 33.0489 79.1552 33.0489C79.8967 33.0489 80.5246 33.3061 81.039 33.8205C81.5534 34.3281 81.8105 34.9527 81.8105 35.6942C81.8105 36.4357 81.5534 37.0636 81.039 37.578ZM78.1833 36.6862C78.4438 36.9467 78.7678 37.077 79.1552 37.077C79.5427 37.077 79.8667 36.9467 80.1272 36.6862C80.3877 36.4257 80.518 36.095 80.518 35.6942C80.518 35.2934 80.3877 34.9627 80.1272 34.7022C79.8667 34.4417 79.5427 34.3114 79.1552 34.3114C78.7678 34.3114 78.4438 34.4417 78.1833 34.7022C77.9295 34.9627 77.8025 35.2934 77.8025 35.6942C77.8025 36.095 77.9295 36.4257 78.1833 36.6862ZM84.3131 34.0509C84.4333 33.7303 84.6304 33.4898 84.9042 33.3295C85.1848 33.1692 85.4954 33.089 85.8361 33.089V34.5319C85.442 34.4851 85.0879 34.5653 84.774 34.7724C84.4667 34.9794 84.3131 35.3235 84.3131 35.8044V38.1992H83.0205V33.1892H84.3131V34.0509ZM87.7989 36.2253C87.9726 36.8532 88.4436 37.1672 89.2118 37.1672C89.7061 37.1672 90.0802 37.0002 90.334 36.6662L91.3761 37.2674C90.8818 37.9821 90.1536 38.3395 89.1917 38.3395C88.3634 38.3395 87.6987 38.089 87.1977 37.588C86.6967 37.087 86.4462 36.4557 86.4462 35.6942C86.4462 34.9394 86.6934 34.3114 87.1877 33.8104C87.682 33.3028 88.3166 33.0489 89.0915 33.0489C89.8263 33.0489 90.4309 33.3028 90.9052 33.8104C91.3861 34.3181 91.6266 34.946 91.6266 35.6942C91.6266 35.8612 91.6099 36.0382 91.5765 36.2253H87.7989ZM87.7789 35.2233H90.334C90.2605 34.8826 90.1069 34.6287 89.8731 34.4617C89.646 34.2947 89.3854 34.2112 89.0915 34.2112C88.7442 34.2112 88.4569 34.3014 88.2298 34.4818C88.0027 34.6555 87.8524 34.9026 87.7789 35.2233Z" fill="#B4B4B4"/>
</g>
<defs>
<filter id="filter0_d_100_876" x="0.609375" y="0" width="96.3906" height="48.2539" filterUnits="userSpaceOnUse" color-interpolation-filters="sRGB">
<feFlood flood-opacity="0" result="BackgroundImageFix"/>
<feColorMatrix in="SourceAlpha" type="matrix" values="0 0 0 0 0 0 0 0 0 0 0 0 0 0 0 0 0 0 127 0" result="hardAlpha"/>
<feOffset dy="4"/>
<feGaussianBlur stdDeviation="2"/>
<feComposite in2="hardAlpha" operator="out"/>
<feColorMatrix type="matrix" values="0 0 0 0 0 0 0 0 0 0 0 0 0 0 0 0 0 0 0.25 0"/>
<feBlend mode="normal" in2="BackgroundImageFix" result="effect1_dropShadow_100_876"/>
<feBlend mode="normal" in="SourceGraphic" in2="effect1_dropShadow_100_876" result="shape"/>
</filter>
</defs>
</svg>
