<svg width="173" height="77" viewBox="0 0 173 77" fill="none" xmlns="http://www.w3.org/2000/svg">
<path d="M33.5108 50.7728C31.9809 52.9827 30.1535 54.5976 28.0286 55.6175C25.8187 56.5525 23.3964 57.0199 20.7615 57.0199C14.4718 57.0199 9.49957 54.9376 5.84475 50.7728C2.10494 46.693 0.235039 41.0833 0.235039 33.9436C0.235039 26.889 2.06245 21.3218 5.71726 17.242C9.54207 12.9922 14.5993 10.8673 20.889 10.8673C26.3287 10.8673 30.8335 12.1847 34.4033 14.8196C37.8881 17.6245 39.9705 21.2793 40.6505 25.784H34.5308C32.7459 25.784 31.4285 24.9766 30.5785 23.3617C29.9835 22.3417 29.1336 21.4068 28.0286 20.5568C26.3287 19.3669 24.0763 18.7719 21.2715 18.7719C17.6167 18.7719 14.7268 20.0893 12.6019 22.7242C10.477 25.529 9.41457 29.2689 9.41457 33.9436C9.41457 38.7034 10.5195 42.4432 12.7294 45.1631C14.8543 47.7979 17.8716 49.1154 21.7814 49.1154C24.6713 49.1154 27.0512 48.3079 28.9211 46.693C30.791 44.9931 31.9809 42.6557 32.4909 39.6808H27.1362C25.8612 39.6808 24.7563 39.2559 23.8213 38.4059C22.9714 37.4709 22.5464 36.366 22.5464 35.0911V32.1587H40.778V56H38.3556C35.9757 56 34.4883 54.8101 33.8933 52.4302L33.5108 50.7728ZM66.2767 45.5455H72.6514C71.7164 49.1154 69.9315 51.8352 67.2966 53.7051C64.6618 55.66 61.3469 56.6375 57.3521 56.6375C52.5074 56.6375 48.7251 55.065 46.0052 51.9202C43.2853 48.8604 41.9254 44.4831 41.9254 38.7884C41.9254 33.3487 43.2429 29.0989 45.8777 26.039C48.5976 22.8942 52.3799 21.3218 57.2246 21.3218C62.3244 21.3218 66.2767 22.8517 69.0815 25.9115C71.8014 29.0564 73.1613 33.4336 73.1613 39.0434C73.1613 39.3833 73.1613 39.6808 73.1613 39.9358C73.1613 40.1908 73.1613 40.3608 73.1613 40.4458C73.1613 40.8708 73.1188 41.1683 73.0338 41.3382H50.9775C51.0625 43.9731 51.6999 45.928 52.8899 47.2029C53.9948 48.5629 55.6522 49.2428 57.8621 49.2428C59.307 49.2428 60.5395 48.9454 61.5594 48.3504C61.8144 48.2654 62.0269 48.1379 62.1969 47.9679C62.4519 47.7129 62.7069 47.4579 62.9618 47.2029C63.0468 46.948 63.3443 46.608 63.8543 46.183C64.4493 45.758 65.2567 45.5455 66.2767 45.5455ZM50.9775 35.601H63.9818C63.8118 33.3062 63.2168 31.6062 62.1969 30.5013C61.0919 29.3114 59.5195 28.7164 57.4796 28.7164C55.6097 28.7164 54.0798 29.3114 52.8899 30.5013C51.6999 31.6912 51.0625 33.3911 50.9775 35.601ZM73.7988 44.7806H82.4684C82.5534 46.4805 83.1908 47.7554 84.3808 48.6054C85.6557 49.4553 87.3556 49.8803 89.4805 49.8803C91.0104 49.8803 92.3279 49.5828 93.4328 48.9879C94.4527 48.3929 94.9627 47.5854 94.9627 46.5655C94.9627 45.0356 93.1778 43.8881 89.608 43.1232C88.0781 42.8682 86.9306 42.6132 86.1657 42.3582C81.6609 41.2533 78.6436 39.9358 77.1136 38.4059C75.4137 36.876 74.5638 34.8361 74.5638 32.2862C74.5638 29.0564 75.7962 26.379 78.2611 24.2541C80.8109 22.2992 84.1258 21.3218 88.2056 21.3218C92.6253 21.3218 96.1527 22.2992 98.7875 24.2541C101.252 26.379 102.57 29.1414 102.74 32.5412H97.2576C95.6427 32.5412 94.4102 31.8187 93.5603 30.3738C93.2203 30.0338 92.8803 29.6938 92.5403 29.3539C91.5204 28.5889 90.118 28.2064 88.3331 28.2064C86.6331 28.2064 85.3582 28.4614 84.5083 28.9714C83.7433 29.4813 83.3608 30.2463 83.3608 31.2663C83.3608 32.6262 85.5707 33.7736 89.9905 34.7086C90.5004 34.8786 90.9254 35.0061 91.2654 35.0911C91.6904 35.1761 92.0729 35.2186 92.4129 35.2186C96.7476 36.3235 99.765 37.5984 101.465 39.0434C103.08 40.5733 103.887 42.6132 103.887 45.1631C103.887 48.9029 102.527 51.7927 99.8075 53.8326C97.2576 55.7025 93.4328 56.6375 88.3331 56.6375C83.4883 56.6375 79.876 55.66 77.4961 53.7051C75.0312 51.7502 73.7988 48.9029 73.7988 45.1631V44.7806ZM120.334 56C117.529 56.17 114.469 56.1275 111.154 55.8725C107.925 55.6175 106.31 53.5351 106.31 49.6253V12.1422H110.899C112.004 12.1422 112.982 12.5672 113.832 13.4172C114.682 14.2671 115.107 15.2871 115.107 16.477V22.2142H120.334V23.9991C120.334 25.2741 119.909 26.3365 119.059 27.1865C118.209 27.9514 117.189 28.3339 115.999 28.3339H115.107V47.2029C115.107 48.6479 115.957 49.3703 117.657 49.3703H120.334V56ZM144.685 45.5455H151.06C150.125 49.1154 148.34 51.8352 145.705 53.7051C143.07 55.66 139.755 56.6375 135.761 56.6375C130.916 56.6375 127.134 55.065 124.414 51.9202C121.694 48.8604 120.334 44.4831 120.334 38.7884C120.334 33.3487 121.651 29.0989 124.286 26.039C127.006 22.8942 130.788 21.3218 135.633 21.3218C140.733 21.3218 144.685 22.8517 147.49 25.9115C150.21 29.0564 151.57 33.4336 151.57 39.0434C151.57 39.3833 151.57 39.6808 151.57 39.9358C151.57 40.1908 151.57 40.3608 151.57 40.4458C151.57 40.8708 151.527 41.1683 151.442 41.3382H129.386C129.471 43.9731 130.108 45.928 131.298 47.2029C132.403 48.5629 134.061 49.2428 136.271 49.2428C137.716 49.2428 138.948 48.9454 139.968 48.3504C140.223 48.2654 140.435 48.1379 140.605 47.9679C140.86 47.7129 141.115 47.4579 141.37 47.2029C141.455 46.948 141.753 46.608 142.263 46.183C142.858 45.758 143.665 45.5455 144.685 45.5455ZM129.386 35.601H142.39C142.22 33.3062 141.625 31.6062 140.605 30.5013C139.5 29.3114 137.928 28.7164 135.888 28.7164C134.018 28.7164 132.488 29.3114 131.298 30.5013C130.108 31.6912 129.471 33.3911 129.386 35.601ZM152.972 56V39.5533C152.972 36.2385 153.44 33.4761 154.375 31.2663C155.395 28.9714 156.755 27.144 158.454 25.784C160.069 24.5091 161.939 23.5741 164.064 22.9792C166.274 22.3842 168.526 22.0867 170.821 22.0867C170.991 22.0867 171.204 22.0867 171.459 22.0867C171.714 22.0867 171.926 22.0867 172.096 22.0867V31.1388H169.164C166.699 31.1388 164.872 31.7337 163.682 32.9237C162.492 34.1136 161.897 35.9835 161.897 38.5334V56H152.972Z" fill="#1D2036"/>
<path d="M8.4665 64.3749V66.179H6.01717V73.6191H3.76537V66.179H1.31604V64.3749H8.4665ZM14.4821 64.3749V73.6191H12.2303V64.3749H14.4821ZM24.7656 64.3749V66.179H20.9994V68.1279H23.8175V69.8793H20.9994V73.6191H18.7476V64.3749H24.7656ZM34.6008 64.3749V66.179H30.8346V68.1279H33.6527V69.8793H30.8346V73.6191H28.5828V64.3749H34.6008ZM40.6698 64.3749V73.6191H38.418V64.3749H40.6698ZM53.2051 73.6191H50.9533L47.1871 67.9172V73.6191H44.9353V64.3749H47.1871L50.9533 70.1032V64.3749H53.2051V73.6191ZM60.8158 73.7113C60.1398 73.7113 59.5341 73.6016 58.9986 73.3821C58.4631 73.1626 58.0329 72.8378 57.7081 72.4076C57.392 71.9775 57.2252 71.4595 57.2077 70.8538H59.6043C59.6394 71.1962 59.758 71.4595 59.9599 71.6439C60.1618 71.8195 60.4252 71.9072 60.75 71.9072C61.0836 71.9072 61.3469 71.8326 61.5401 71.6834C61.7332 71.5254 61.8298 71.3103 61.8298 71.0381C61.8298 70.8099 61.7508 70.6211 61.5928 70.4719C61.4435 70.3226 61.2548 70.1997 61.0265 70.1032C60.807 70.0066 60.491 69.8969 60.0784 69.774C59.4814 69.5896 58.9942 69.4052 58.6167 69.2209C58.2392 69.0365 57.9144 68.7644 57.6422 68.4044C57.3701 68.0445 57.234 67.5748 57.234 66.9954C57.234 66.1351 57.5457 65.4635 58.169 64.9807C58.7923 64.489 59.6043 64.2432 60.6051 64.2432C61.6235 64.2432 62.4443 64.489 63.0676 64.9807C63.6909 65.4635 64.0245 66.1395 64.0684 67.0086H61.6323C61.6147 66.7101 61.505 66.4775 61.303 66.3107C61.1011 66.1351 60.8422 66.0473 60.5261 66.0473C60.254 66.0473 60.0345 66.1219 59.8677 66.2712C59.7009 66.4116 59.6175 66.6179 59.6175 66.8901C59.6175 67.1886 59.758 67.4212 60.0389 67.588C60.3198 67.7548 60.7588 67.9348 61.3557 68.1279C61.9527 68.3298 62.4355 68.523 62.8042 68.7073C63.1817 68.8917 63.5066 69.1594 63.7787 69.5106C64.0509 69.8618 64.1869 70.3139 64.1869 70.8669C64.1869 71.3937 64.0509 71.8721 63.7787 72.3023C63.5153 72.7325 63.1291 73.0748 62.6199 73.3294C62.1107 73.584 61.5094 73.7113 60.8158 73.7113ZM70.6294 71.5385L69.1677 75.3179H67.7323L68.4961 71.5385H70.6294ZM87.0902 67.351C87.0902 67.8865 86.9673 68.3781 86.7215 68.8258C86.4757 69.2648 86.0982 69.6203 85.589 69.8925C85.0798 70.1646 84.4478 70.3007 83.6928 70.3007H82.2969V73.6191H80.0451V64.3749H83.6928C84.4302 64.3749 85.0535 64.5022 85.5627 64.7568C86.0719 65.0114 86.4537 65.3625 86.7083 65.8103C86.9629 66.258 87.0902 66.7716 87.0902 67.351ZM83.5216 68.5098C83.9517 68.5098 84.2722 68.4088 84.4829 68.2069C84.6936 68.005 84.7989 67.7197 84.7989 67.351C84.7989 66.9823 84.6936 66.6969 84.4829 66.495C84.2722 66.2931 83.9517 66.1921 83.5216 66.1921H82.2969V68.5098H83.5216ZM97.0327 67.2983C96.8659 66.991 96.6245 66.7584 96.3084 66.6004C96.0012 66.4336 95.6368 66.3502 95.2154 66.3502C94.4868 66.3502 93.903 66.5916 93.464 67.0744C93.0251 67.5485 92.8056 68.185 92.8056 68.9839C92.8056 69.8354 93.0339 70.5026 93.4904 70.9855C93.9557 71.4595 94.5921 71.6966 95.3998 71.6966C95.9529 71.6966 96.4182 71.5561 96.7957 71.2752C97.1819 70.9942 97.4629 70.5904 97.6384 70.0637H94.7809V68.4044H99.6795V70.4982C99.5127 71.0601 99.2274 71.5824 98.8236 72.0653C98.4285 72.5481 97.9237 72.9388 97.3092 73.2373C96.6947 73.5357 96.0012 73.685 95.2286 73.685C94.3156 73.685 93.4992 73.4875 92.7793 73.0924C92.0682 72.6886 91.5107 72.1311 91.1069 71.42C90.7118 70.7089 90.5143 69.8969 90.5143 68.9839C90.5143 68.0708 90.7118 67.2588 91.1069 66.5477C91.5107 65.8278 92.0682 65.2704 92.7793 64.8753C93.4904 64.4715 94.3024 64.2696 95.2154 64.2696C96.3216 64.2696 97.2522 64.5373 98.0071 65.0728C98.7709 65.6083 99.2757 66.3502 99.5215 67.2983H97.0327ZM116.056 73.6191L115.2 72.7895C114.349 73.4392 113.33 73.764 112.145 73.764C111.434 73.764 110.815 73.6499 110.288 73.4216C109.762 73.1846 109.353 72.8554 109.064 72.434C108.783 72.0038 108.642 71.5034 108.642 70.9328C108.642 70.3534 108.796 69.831 109.103 69.3657C109.419 68.8917 109.889 68.5054 110.512 68.2069C110.284 67.926 110.122 67.6582 110.025 67.4036C109.929 67.1403 109.88 66.855 109.88 66.5477C109.88 66.1087 109.994 65.7093 110.223 65.3494C110.451 64.9894 110.78 64.7085 111.21 64.5066C111.649 64.2959 112.167 64.1905 112.764 64.1905C113.37 64.1905 113.883 64.3003 114.305 64.5198C114.726 64.7392 115.042 65.0333 115.253 65.402C115.464 65.7708 115.56 66.1746 115.543 66.6135H113.423C113.431 66.3765 113.37 66.1965 113.238 66.0736C113.115 65.9419 112.948 65.8761 112.738 65.8761C112.527 65.8761 112.352 65.9376 112.211 66.0605C112.071 66.1834 112 66.3414 112 66.5345C112 66.7189 112.057 66.912 112.172 67.1139C112.294 67.3159 112.483 67.5485 112.738 67.8119L114.99 70.011C115.007 69.9671 115.029 69.9144 115.055 69.853C115.091 69.7915 115.126 69.7213 115.161 69.6423L115.648 68.8127H117.9L117.268 69.9583C117.031 70.4763 116.759 70.9679 116.451 71.4332L118.677 73.6191H116.056ZM112.251 71.9468C112.839 71.9468 113.361 71.78 113.818 71.4464L111.763 69.4579C111.131 69.7827 110.815 70.2217 110.815 70.7748C110.815 71.1084 110.942 71.3893 111.197 71.6175C111.46 71.837 111.812 71.9468 112.251 71.9468ZM138.018 64.3749V73.6191H135.766V68.0752L133.699 73.6191H131.882L129.801 68.0621V73.6191H127.549V64.3749H130.209L132.803 70.7748L135.371 64.3749H138.018ZM146.643 73.7113C145.774 73.7113 144.975 73.5094 144.246 73.1056C143.526 72.7017 142.951 72.1399 142.521 71.42C142.1 70.6914 141.889 69.8749 141.889 68.9707C141.889 68.0665 142.1 67.2544 142.521 66.5345C142.951 65.8147 143.526 65.2528 144.246 64.849C144.975 64.4451 145.774 64.2432 146.643 64.2432C147.512 64.2432 148.307 64.4451 149.026 64.849C149.755 65.2528 150.326 65.8147 150.738 66.5345C151.16 67.2544 151.37 68.0665 151.37 68.9707C151.37 69.8749 151.16 70.6914 150.738 71.42C150.317 72.1399 149.746 72.7017 149.026 73.1056C148.307 73.5094 147.512 73.7113 146.643 73.7113ZM146.643 71.657C147.38 71.657 147.969 71.4112 148.408 70.9196C148.855 70.428 149.079 69.7784 149.079 68.9707C149.079 68.1542 148.855 67.5046 148.408 67.0218C147.969 66.5301 147.38 66.2843 146.643 66.2843C145.897 66.2843 145.3 66.5257 144.852 67.0086C144.413 67.4914 144.194 68.1455 144.194 68.9707C144.194 69.7871 144.413 70.4412 144.852 70.9328C145.3 71.4156 145.897 71.657 146.643 71.657ZM159.971 73.6191L158.049 70.1295H157.509V73.6191H155.257V64.3749H159.036C159.765 64.3749 160.384 64.5022 160.893 64.7568C161.411 65.0114 161.797 65.3625 162.052 65.8103C162.306 66.2492 162.434 66.7408 162.434 67.2851C162.434 67.8997 162.258 68.4483 161.907 68.9312C161.565 69.414 161.055 69.7564 160.379 69.9583L162.513 73.6191H159.971ZM157.509 68.5361H158.905C159.317 68.5361 159.624 68.4352 159.826 68.2333C160.037 68.0313 160.142 67.746 160.142 67.3773C160.142 67.0261 160.037 66.7496 159.826 66.5477C159.624 66.3458 159.317 66.2448 158.905 66.2448H157.509V68.5361ZM168.733 66.179V68.0489H171.748V69.7871H168.733V71.8151H172.143V73.6191H166.481V64.3749H172.143V66.179H168.733Z" fill="#1D2036" fill-opacity="0.8"/>
</svg>
