<svg width="21" height="21" viewBox="0 0 21 21" fill="none" xmlns="http://www.w3.org/2000/svg">
<path d="M20.3135 13.1389C19.7131 12.3841 19.1127 12.3841 17.645 13.1074L14.7764 14.7741C14.3761 14.9942 13.4755 15.0571 12.6416 15.0571C12.8084 14.7741 12.7416 14.4281 12.4414 14.0194C11.9078 13.2961 11.0071 12.8558 10.0398 12.8558H8.73892C8.03845 12.8558 7.37132 12.6672 6.83763 12.2898C5.63404 11.4388 3.75194 12.3648 2.83491 12.9171V12.2584H0.5V20.4344H2.83491V19.4911H7.17118C7.83831 19.4911 8.53879 19.4281 9.20588 19.3967L13.5422 18.7678C13.7089 18.7678 13.8757 18.7363 14.0092 18.7049C14.4094 18.642 14.7764 18.4533 15.1099 18.1703L20.1466 14.3967C20.547 14.0823 20.6137 13.5162 20.3135 13.1389ZM2.16778 19.8055H1.16709V12.8873H2.16778V13.359V19.4911V19.8055ZM19.7464 13.9879L14.6763 17.6986L14.6429 17.73C14.4095 17.9187 14.1759 18.0445 13.9091 18.076H13.8758C13.7424 18.1074 13.6423 18.1074 13.5088 18.1074L9.10585 18.7363C8.4721 18.8307 7.80497 18.8621 7.17122 18.8621H2.83491V13.6734C3.63545 13.1388 5.5034 12.1326 6.43736 12.8244C7.07111 13.2646 7.90504 13.5162 8.73892 13.5162H10.0398C10.807 13.5162 11.5075 13.8306 11.9411 14.4596C12.0745 14.6483 12.1079 14.8369 12.0745 14.8998C11.9744 15.0571 11.5742 15.12 11.1406 15.1514C11.0956 15.1514 11.0508 15.1514 11.0071 15.1514C10.9212 15.1514 10.84 15.1514 10.7737 15.1514H7.77163C6.7376 15.1514 6.10381 15.6231 6.10381 16.4093C6.10381 16.598 6.23722 16.7237 6.43736 16.7237C6.6375 16.7237 6.77091 16.598 6.77091 16.4093C6.77091 16.252 6.77091 15.7803 7.77159 15.7803H10.7403C10.8094 15.7803 10.8952 15.7803 11.0071 15.7803C11.0573 15.7803 11.1121 15.7803 11.1739 15.7803C11.2073 15.7803 11.274 15.7803 11.3407 15.7803C12.9085 15.8118 14.3761 15.7803 15.1433 15.403L18.012 13.7363C19.4129 13.0759 19.5463 13.2332 19.8132 13.6105C19.8798 13.7049 19.8798 13.8936 19.7464 13.9879Z" fill="#B4B4B4" stroke="#B4B4B4" stroke-width="0.5"/>
<path d="M3.1018 10.5035C3.16853 10.5664 3.2686 10.6293 3.36866 10.6293H17.6451C17.7785 10.6293 17.8785 10.5664 17.9119 10.472L19.1127 8.89969C19.1795 8.80535 19.2128 8.67958 19.1461 8.58524C19.0794 8.4909 18.9793 8.42799 18.8459 8.42799H18.1711C18.001 4.68448 14.8113 1.67729 10.8404 1.51699V1.19531H11.5076C11.7077 1.19531 11.8411 1.06954 11.8411 0.880859C11.8411 0.69218 11.7077 0.566406 11.5075 0.566406H9.50616C9.30602 0.566406 9.17261 0.69218 9.17261 0.880859C9.17261 1.06954 9.30602 1.19531 9.50616 1.19531H10.1733V1.51699C6.20247 1.67729 3.01268 4.68448 2.84264 8.42799H2.16781C2.0344 8.42799 1.90095 8.52233 1.8676 8.61667C1.83426 8.71101 1.83426 8.83679 1.90095 8.93113L3.1018 10.5035ZM10.5068 2.13875C14.2761 2.13875 17.3448 4.9375 17.5116 8.42807H3.50208C3.70221 4.93746 6.77094 2.13875 10.5068 2.13875ZM3.16849 9.05697H17.8452H18.1787L17.4782 10.0004H3.53542L2.83494 9.05697H3.16849Z" fill="#B4B4B4" stroke="#B4B4B4" stroke-width="0.5"/>
<path d="M10.536 3.5C8.30112 3.5 6.19969 4.63208 5.03222 6.48743C4.96549 6.64468 4.99887 6.83336 5.16563 6.9277C5.23235 6.95913 5.2657 6.95913 5.33242 6.95913C5.46583 6.95913 5.5659 6.89623 5.63263 6.80189C6.63331 5.16668 8.5346 4.12894 10.536 4.12894C10.7361 4.12894 10.8695 4.00317 10.8695 3.81449C10.8695 3.62581 10.7361 3.5 10.536 3.5Z" fill="#B4B4B4"/>
</svg>
