<svg width="19" height="19" viewBox="0 0 19 19" fill="none" xmlns="http://www.w3.org/2000/svg">
<path d="M13.6406 18.0312H13.8906V17.7812V16.5982V16.5979C13.8896 15.7476 13.5514 14.9324 12.9501 14.3311C12.3489 13.7299 11.5336 13.3916 10.6833 13.3906H10.683L8.31696 13.3906L8.31667 13.3906C7.46635 13.3916 6.65114 13.7299 6.04988 14.3311C5.44861 14.9324 5.11038 15.7476 5.10938 16.5979V16.5982V17.7812V18.0312H5.35938H6.54241H6.79241V17.7812L6.79241 16.5985C6.79241 16.5985 6.79241 16.5984 6.79241 16.5984C6.79288 16.1941 6.95367 15.8066 7.23951 15.5208C7.52535 15.2349 7.9129 15.0741 8.31713 15.0737C8.31717 15.0737 8.3172 15.0737 8.31724 15.0737H10.6828C10.6828 15.0737 10.6828 15.0737 10.6829 15.0737C11.0871 15.0741 11.4746 15.2349 11.7605 15.5208C12.0464 15.8066 12.2071 16.1942 12.2076 16.5985V17.7812V18.0312H12.4576H13.6406Z" fill="#B4B4B4" stroke="#B4B4B4" stroke-width="0.5"/>
<path d="M9.49861 7.976C9.80013 7.976 10.0949 8.06542 10.3456 8.23294C10.5963 8.40046 10.7917 8.63856 10.9071 8.91714C11.0225 9.19571 11.0527 9.50225 10.9939 9.79798C10.935 10.0937 10.7898 10.3654 10.5766 10.5786C10.3634 10.7918 10.0918 10.937 9.79603 10.9958C9.5003 11.0546 9.19376 11.0245 8.91519 10.9091C8.63661 10.7937 8.39851 10.5983 8.23099 10.3476C8.06347 10.0968 7.97405 9.80209 7.97405 9.50056C7.97405 9.09622 8.13467 8.70844 8.42058 8.42254C8.70649 8.13663 9.09427 7.976 9.49861 7.976ZM9.49861 6.29297C8.86421 6.29297 8.24405 6.48109 7.71657 6.83355C7.18908 7.186 6.77796 7.68696 6.53518 8.27307C6.29241 8.85918 6.22888 9.50412 6.35265 10.1263C6.47642 10.7485 6.78191 11.3201 7.2305 11.7687C7.67909 12.2173 8.25063 12.5227 8.87284 12.6465C9.49505 12.7703 10.14 12.7068 10.7261 12.464C11.3122 12.2212 11.8132 11.8101 12.1656 11.2826C12.5181 10.7551 12.7062 10.135 12.7062 9.50056C12.7062 8.64985 12.3683 7.83399 11.7667 7.23245C11.1652 6.63091 10.3493 6.29297 9.49861 6.29297Z" fill="#B4B4B4" stroke="#B4B4B4" stroke-width="0.5"/>
<path d="M17.7812 18.0313H18.0312V17.7813V8.31702C18.0313 8.19473 18.0046 8.0739 17.9532 7.96295C17.9017 7.852 17.8267 7.7536 17.7334 7.6746L17.7333 7.67459L10.0436 1.16791C9.89167 1.03931 9.69906 0.96875 9.5 0.96875C9.30095 0.96875 9.10834 1.03931 8.95639 1.16789C8.95639 1.1679 8.95638 1.1679 8.95638 1.16791L1.26666 7.67459L1.26665 7.6746C1.1733 7.7536 1.09828 7.852 1.04684 7.96295C0.995392 8.07389 0.968745 8.19471 0.96875 8.317C0.96875 8.31701 0.96875 8.31701 0.96875 8.31702V17.7813V18.0313H1.21875H2.40179H2.65179V17.7813V8.70736L9.5 2.91268L16.3482 8.70736V17.7813V18.0313H16.5982H17.7812Z" fill="#B4B4B4" stroke="#B4B4B4" stroke-width="0.5"/>
</svg>
