<svg width="60" height="60" viewBox="0 0 60 60" fill="none" xmlns="http://www.w3.org/2000/svg">
<rect width="60" height="60" rx="30" fill="#BF1E2C" fill-opacity="0.1"/>
<rect x="20.5" y="20.5" width="19" height="19" rx="9.5" stroke="#BF1E2C"/>
<path d="M30.7967 26.9702V36.5H29.1585V26.9702H30.7967ZM29.0352 24.4424C29.0352 24.1782 29.1144 23.9551 29.273 23.773C29.4374 23.591 29.6781 23.5 29.9952 23.5C30.3064 23.5 30.5442 23.591 30.7086 23.773C30.8789 23.9551 30.964 24.1782 30.964 24.4424C30.964 24.6949 30.8789 24.9121 30.7086 25.0942C30.5442 25.2703 30.3064 25.3584 29.9952 25.3584C29.6781 25.3584 29.4374 25.2703 29.273 25.0942C29.1144 24.9121 29.0352 24.6949 29.0352 24.4424Z" fill="#BF1E2C"/>
</svg>
