<svg width="28" height="29" viewBox="0 0 28 29" fill="none" xmlns="http://www.w3.org/2000/svg">
<path d="M10.25 27H17.75C24 27 26.5 24.5 26.5 18.25V10.75C26.5 4.5 24 2 17.75 2H10.25C4 2 1.5 4.5 1.5 10.75V18.25C1.5 24.5 4 27 10.25 27Z" stroke="#1D2036" stroke-width="2.2499" stroke-linecap="round" stroke-linejoin="round"/>
<path d="M18.4629 22.627V17.752" stroke="#1D2036" stroke-width="2.2499" stroke-miterlimit="10" stroke-linecap="round" stroke-linejoin="round"/>
<path d="M18.4629 8.8125V6.375" stroke="#1D2036" stroke-width="2.2499" stroke-miterlimit="10" stroke-linecap="round" stroke-linejoin="round"/>
<path d="M18.4629 15.3106C20.2578 15.3106 21.7129 13.8555 21.7129 12.0606C21.7129 10.2656 20.2578 8.81055 18.4629 8.81055C16.6679 8.81055 15.2129 10.2656 15.2129 12.0606C15.2129 13.8555 16.6679 15.3106 18.4629 15.3106Z" stroke="#FDD403" stroke-width="2.2499" stroke-miterlimit="10" stroke-linecap="round" stroke-linejoin="round"/>
<path d="M9.53906 22.627V20.1895" stroke="#1D2036" stroke-width="2.2499" stroke-miterlimit="10" stroke-linecap="round" stroke-linejoin="round"/>
<path d="M9.53906 11.25V6.375" stroke="#1D2036" stroke-width="2.2499" stroke-miterlimit="10" stroke-linecap="round" stroke-linejoin="round"/>
<path d="M9.53711 20.1895C11.332 20.1895 12.7872 18.7343 12.7872 16.9395C12.7872 15.1446 11.332 13.6895 9.53711 13.6895C7.74218 13.6895 6.28711 15.1446 6.28711 16.9395C6.28711 18.7343 7.74218 20.1895 9.53711 20.1895Z" stroke="#FDD403" stroke-width="2.2499" stroke-miterlimit="10" stroke-linecap="round" stroke-linejoin="round"/>
</svg>
