<svg width="26" height="27" viewBox="0 0 26 27" fill="none" xmlns="http://www.w3.org/2000/svg">
<path d="M25.5014 13.5015C25.5 16.3858 24.5015 19.181 22.6751 21.4134C20.8487 23.6458 18.3067 25.1782 15.4798 25.751C12.6529 26.3237 9.71491 25.9016 7.16362 24.5561C4.61232 23.2106 2.60461 21.0245 1.48063 18.3682C0.829767 16.8284 0.496246 15.1732 0.500032 13.5015C0.500032 13.2693 0.592282 13.0465 0.756487 12.8823C0.920693 12.7181 1.1434 12.6259 1.37562 12.6259C1.60785 12.6259 1.83056 12.7181 1.99476 12.8823C2.15897 13.0465 2.25122 13.2693 2.25122 13.5015C2.25315 15.9814 3.11216 18.3844 4.68276 20.3036C6.25337 22.2227 8.43902 23.5401 10.8696 24.0325C13.3001 24.5249 15.8261 24.162 18.0198 23.0055C20.2135 21.8489 21.9401 19.9696 22.907 17.686C23.781 15.6131 23.983 13.3183 23.4846 11.1245C22.9861 8.93077 21.8123 6.94856 20.1283 5.45686C18.4443 3.96515 16.335 3.03906 14.0971 2.80892C11.8592 2.57879 9.60555 3.05618 7.65321 4.17393C6.54362 4.81305 5.55615 5.64387 4.73667 6.6278H6.75156C6.98357 6.6278 7.20608 6.71997 7.37014 6.88403C7.5342 7.04808 7.62636 7.27059 7.62636 7.50261C7.62636 7.73462 7.5342 7.95713 7.37014 8.12118C7.20608 8.28524 6.98357 8.37741 6.75156 8.37741H2.63019C2.51518 8.37762 2.40125 8.35514 2.29494 8.31127C2.18862 8.2674 2.09199 8.203 2.01059 8.12174C1.92919 8.04049 1.86461 7.94398 1.82055 7.83774C1.77649 7.7315 1.75381 7.61762 1.75381 7.50261V3.37966C1.75381 3.14744 1.84606 2.92473 2.01027 2.76052C2.17447 2.59632 2.39718 2.50407 2.6294 2.50407C2.86163 2.50407 3.08434 2.59632 3.24854 2.76052C3.41275 2.92473 3.505 3.14744 3.505 3.37966V5.37244C4.67702 4.00002 6.13295 2.89832 7.77225 2.14342C9.41155 1.38852 11.1952 0.998401 12.9999 1C14.642 0.998759 16.2682 1.32127 17.7855 1.94909C19.3028 2.5769 20.6815 3.49771 21.8426 4.65882C23.0037 5.81994 23.9245 7.19859 24.5523 8.7159C25.1801 10.2332 25.5027 11.8594 25.5014 13.5015Z" fill="#1D2036" stroke="#1D2036" stroke-width="0.5"/>
<path d="M8.49289 18.9415C8.42749 18.9415 8.36209 18.917 8.31304 18.8598C8.26399 18.8107 8.23947 18.7453 8.24764 18.6717L8.76265 10.7586C8.77083 10.6278 8.8771 10.5297 9.0079 10.5297H11.166V10.497C11.166 9.95743 11.3786 9.45877 11.7546 9.07455C12.1388 8.70669 12.6375 8.49414 13.177 8.49414C14.2806 8.49414 15.188 9.39337 15.188 10.5051C15.188 10.5133 15.1799 10.5215 15.1799 10.5297V10.5378H17.3462C17.477 10.5378 17.5832 10.6359 17.5914 10.7667L18.0983 18.6227C18.1064 18.6472 18.1064 18.6636 18.1064 18.6881C18.0983 18.8271 17.992 18.9415 17.853 18.9415H8.49289ZM8.75448 18.451H17.5914L17.1173 11.0283H15.1799V11.6169H15.188C15.3188 11.7068 15.3924 11.8376 15.3924 11.9848C15.3924 12.2382 15.188 12.4426 14.9346 12.4426C14.6812 12.4426 14.4768 12.2382 14.4768 11.9848C14.4768 11.8376 14.5504 11.7068 14.6812 11.6169H14.6894V11.0283H11.6565V11.6169H11.6647C11.7955 11.7068 11.8691 11.8376 11.8691 11.9848C11.8691 12.2382 11.6647 12.4426 11.4113 12.4426C11.1579 12.4426 10.9535 12.2382 10.9535 11.9848C10.9535 11.8376 11.0271 11.7068 11.1579 11.6169H11.166V11.0283H9.22862L8.75448 18.451ZM13.177 8.9928C12.3432 8.9928 11.6565 9.67131 11.6565 10.5133V10.546H14.7057L14.6975 10.5297V10.5133C14.6975 9.67131 14.0109 8.9928 13.177 8.9928Z" fill="#FDD403" stroke="#FDD403" stroke-width="0.9"/>
</svg>
