<svg width="26" height="25" viewBox="0 0 26 25" fill="none" xmlns="http://www.w3.org/2000/svg">
<path d="M25.5014 12.5015C25.5 15.3858 24.5015 18.181 22.6751 20.4134C20.8487 22.6458 18.3067 24.1782 15.4798 24.751C12.6529 25.3237 9.71491 24.9016 7.16362 23.5561C4.61232 22.2106 2.60461 20.0245 1.48063 17.3682C0.829767 15.8284 0.496246 14.1732 0.500032 12.5015C0.500032 12.2693 0.592282 12.0465 0.756487 11.8823C0.920693 11.7181 1.1434 11.6259 1.37562 11.6259C1.60785 11.6259 1.83056 11.7181 1.99476 11.8823C2.15897 12.0465 2.25122 12.2693 2.25122 12.5015C2.25315 14.9814 3.11216 17.3844 4.68276 19.3036C6.25337 21.2227 8.43902 22.5401 10.8696 23.0325C13.3001 23.5249 15.8261 23.162 18.0198 22.0055C20.2135 20.8489 21.9401 18.9696 22.907 16.686C23.781 14.6131 23.983 12.3183 23.4846 10.1245C22.9861 7.93077 21.8123 5.94856 20.1283 4.45686C18.4443 2.96515 16.335 2.03906 14.0971 1.80892C11.8592 1.57879 9.60555 2.05618 7.65321 3.17393C6.54362 3.81305 5.55615 4.64387 4.73667 5.6278H6.75156C6.98357 5.6278 7.20608 5.71997 7.37014 5.88403C7.5342 6.04808 7.62636 6.27059 7.62636 6.50261C7.62636 6.73462 7.5342 6.95713 7.37014 7.12118C7.20608 7.28524 6.98357 7.37741 6.75156 7.37741H2.63019C2.51518 7.37762 2.40125 7.35514 2.29494 7.31127C2.18862 7.2674 2.09199 7.203 2.01059 7.12174C1.92919 7.04049 1.86461 6.94398 1.82055 6.83774C1.77649 6.7315 1.75381 6.61762 1.75381 6.50261V2.37966C1.75381 2.14744 1.84606 1.92473 2.01027 1.76052C2.17447 1.59632 2.39718 1.50407 2.6294 1.50407C2.86163 1.50407 3.08434 1.59632 3.24854 1.76052C3.41275 1.92473 3.505 2.14744 3.505 2.37966V4.37244C4.67702 3.00002 6.13295 1.89832 7.77225 1.14342C9.41155 0.388519 11.1952 -0.00159922 12.9999 4.92712e-06C14.642 -0.00124095 16.2682 0.321269 17.7855 0.949086C19.3028 1.5769 20.6815 2.49771 21.8426 3.65882C23.0037 4.81994 23.9245 6.19859 24.5523 7.7159C25.1801 9.23321 25.5027 10.8594 25.5014 12.5015Z" fill="#1D2036"/>
<path d="M8.49289 17.9415C8.42749 17.9415 8.36209 17.917 8.31304 17.8598C8.26399 17.8107 8.23947 17.7453 8.24764 17.6717L8.76265 9.75856C8.77083 9.62776 8.8771 9.52966 9.0079 9.52966H11.166V9.49696C11.166 8.95743 11.3786 8.45877 11.7546 8.07455C12.1388 7.70669 12.6375 7.49414 13.177 7.49414C14.2806 7.49414 15.188 8.39337 15.188 9.50514C15.188 9.51331 15.1799 9.52149 15.1799 9.52966V9.53784H17.3462C17.477 9.53784 17.5832 9.63593 17.5914 9.76673L18.0983 17.6227C18.1064 17.6472 18.1064 17.6636 18.1064 17.6881C18.0983 17.8271 17.992 17.9415 17.853 17.9415H8.49289ZM8.75448 17.451H17.5914L17.1173 10.0283H15.1799V10.6169H15.188C15.3188 10.7068 15.3924 10.8376 15.3924 10.9848C15.3924 11.2382 15.188 11.4426 14.9346 11.4426C14.6812 11.4426 14.4768 11.2382 14.4768 10.9848C14.4768 10.8376 14.5504 10.7068 14.6812 10.6169H14.6894V10.0283H11.6565V10.6169H11.6647C11.7955 10.7068 11.8691 10.8376 11.8691 10.9848C11.8691 11.2382 11.6647 11.4426 11.4113 11.4426C11.1579 11.4426 10.9535 11.2382 10.9535 10.9848C10.9535 10.8376 11.0271 10.7068 11.1579 10.6169H11.166V10.0283H9.22862L8.75448 17.451ZM13.177 7.9928C12.3432 7.9928 11.6565 8.67131 11.6565 9.51331V9.54601H14.7057L14.6975 9.52966V9.51331C14.6975 8.67131 14.0109 7.9928 13.177 7.9928Z" fill="#FDD403" stroke="#FDD403"/>
</svg>
