<svg width="22" height="25" viewBox="0 0 22 25" fill="none" xmlns="http://www.w3.org/2000/svg">
<path d="M11.0847 7.0606V10.0005C11.0847 10.1887 10.925 10.3403 10.7279 10.3403H10.6328C10.4357 10.3403 10.2768 10.1887 10.2768 10.0005V7.04697C10.2768 6.56279 9.93449 6.41797 9.60749 6.41797C9.27961 6.41797 8.9381 6.56279 8.9381 7.04697V10.0005C8.9381 10.1887 8.77756 10.3403 8.58137 10.3403H8.48625C8.29001 10.3403 8.12946 10.1887 8.12946 10.0005V7.0606C8.12946 6.19326 6.83405 6.22261 6.83405 7.07036C6.83405 8.0855 6.83405 9.87783 6.83405 9.87783C6.82814 11.4366 7.21799 11.8418 7.86276 12.3272C8.38263 12.7185 8.82692 12.9427 8.82692 13.9141V20.164H10.3882V13.9141C10.3882 12.9427 10.8316 12.7185 11.3515 12.3272C11.9963 11.8418 12.3861 11.4366 12.3802 9.87783C12.3802 9.87783 12.3802 8.08545 12.3802 7.07036C12.3802 6.22261 11.0847 6.19326 11.0847 7.0606Z" fill="#FDD403"/>
<path d="M15.3307 7.35423C14.9986 8.24154 14.3768 10.4093 14.3768 11.5102C14.2902 14.1584 15.7173 12.739 15.753 14.8129V20.1824H17.3066L17.3143 20.2015C17.3143 20.2015 17.3143 20.1934 17.3143 20.1824C17.3143 19.933 17.3143 16.9625 17.3143 13.9321C17.3143 10.9344 17.3143 7.88099 17.3143 7.35428C17.3143 6.27245 15.8464 5.9743 15.3307 7.35423Z" fill="#FDD403"/>
<path d="M21.7089 1.73247C21.4932 1.22231 21.1338 0.79082 20.6811 0.48501C20.4552 0.33208 20.2054 0.211084 19.9378 0.127832C19.6702 0.0445801 19.3865 0 19.0934 0H4.21768H3.979H2.90527C2.51455 0 2.13906 0.0793945 1.79927 0.222998C1.28872 0.439551 0.857227 0.798047 0.551416 1.25039C0.398486 1.47676 0.277002 1.72651 0.193799 1.99404C0.110547 2.26079 0.0664062 2.54492 0.0664062 2.83672V22.1632C0.0664062 22.5527 0.14541 22.9277 0.289795 23.2675C0.505566 23.7776 0.864893 24.2091 1.31685 24.5149C1.54365 24.6678 1.79419 24.7893 2.06094 24.8721C2.32847 24.9554 2.61221 25 2.90527 25H3.979H4.21768H19.0934C19.4833 25 19.8588 24.9206 20.1985 24.777C20.7091 24.5608 21.1415 24.2023 21.4464 23.7496C21.5993 23.5236 21.7216 23.2734 21.804 23.0063C21.8881 22.7396 21.9323 22.4554 21.9323 22.1632V2.83672C21.9323 2.44771 21.8525 2.07222 21.7089 1.73247ZM3.78188 23.4862H2.90527C2.71924 23.4858 2.54683 23.4493 2.38882 23.3826C2.15264 23.2824 1.94878 23.1138 1.80522 22.9018C1.73389 22.796 1.67778 22.6805 1.6396 22.5565C1.60137 22.4329 1.58013 22.3012 1.58013 22.1632V2.83672C1.58013 2.65239 1.61753 2.48037 1.68374 2.32236C1.78398 2.08662 1.9522 1.88281 2.16455 1.73965C2.2707 1.66826 2.38628 1.61177 2.51025 1.57314C2.63428 1.53491 2.76597 1.51406 2.90527 1.51367H3.78193L3.78188 23.4862ZM20.4177 22.1633C20.4177 22.3476 20.3813 22.5196 20.3149 22.6776C20.2147 22.9138 20.0457 23.1172 19.8341 23.2608C19.728 23.3322 19.6116 23.3882 19.4884 23.4269C19.3636 23.4651 19.2328 23.4859 19.0935 23.4863H4.65347V1.51372H19.0935C19.2786 1.51416 19.4511 1.55112 19.6091 1.61782C19.846 1.71763 20.0499 1.88667 20.1927 2.09819C20.264 2.20396 20.3209 2.31992 20.3592 2.44346C20.3974 2.56748 20.4178 2.69834 20.4178 2.83677V22.1633H20.4177Z" fill="#1D2036"/>
</svg>
