<svg width="24" height="27" viewBox="0 0 24 27" fill="none" xmlns="http://www.w3.org/2000/svg">
<path d="M12.0847 8.0606V11.0005C12.0847 11.1887 11.925 11.3403 11.7279 11.3403H11.6328C11.4357 11.3403 11.2768 11.1887 11.2768 11.0005V8.04697C11.2768 7.56279 10.9345 7.41797 10.6075 7.41797C10.2796 7.41797 9.9381 7.56279 9.9381 8.04697V11.0005C9.9381 11.1887 9.77756 11.3403 9.58137 11.3403H9.48625C9.29001 11.3403 9.12946 11.1887 9.12946 11.0005V8.0606C9.12946 7.19326 7.83405 7.22261 7.83405 8.07036C7.83405 9.0855 7.83405 10.8778 7.83405 10.8778C7.82814 12.4366 8.21799 12.8418 8.86276 13.3272C9.38263 13.7185 9.82692 13.9427 9.82692 14.9141V21.164H11.3882V14.9141C11.3882 13.9427 11.8316 13.7185 12.3515 13.3272C12.9963 12.8418 13.3861 12.4366 13.3802 10.8778C13.3802 10.8778 13.3802 9.08545 13.3802 8.07036C13.3802 7.22261 12.0847 7.19326 12.0847 8.0606Z" fill="#FDD403"/>
<path d="M16.3307 8.35423C15.9986 9.24154 15.3768 11.4093 15.3768 12.5102C15.2902 15.1584 16.7173 13.739 16.753 15.8129V21.1824H18.3066L18.3143 21.2015C18.3143 21.2015 18.3143 21.1934 18.3143 21.1824C18.3143 20.933 18.3143 17.9625 18.3143 14.9321C18.3143 11.9344 18.3143 8.88099 18.3143 8.35428C18.3143 7.27245 16.8464 6.9743 16.3307 8.35423Z" fill="#FDD403"/>
<path d="M22.7089 2.73247C22.4932 2.22231 22.1338 1.79082 21.6811 1.48501C21.4552 1.33208 21.2054 1.21108 20.9378 1.12783C20.6702 1.04458 20.3865 1 20.0934 1H5.21768H4.979H3.90527C3.51455 1 3.13906 1.07939 2.79927 1.223C2.28872 1.43955 1.85723 1.79805 1.55142 2.25039C1.39849 2.47676 1.277 2.72651 1.1938 2.99404C1.11055 3.26079 1.06641 3.54492 1.06641 3.83672V23.1632C1.06641 23.5527 1.14541 23.9277 1.28979 24.2675C1.50557 24.7776 1.86489 25.2091 2.31685 25.5149C2.54365 25.6678 2.79419 25.7893 3.06094 25.8721C3.32847 25.9554 3.61221 26 3.90527 26H4.979H5.21768H20.0934C20.4833 26 20.8588 25.9206 21.1985 25.777C21.7091 25.5608 22.1415 25.2023 22.4464 24.7496C22.5993 24.5236 22.7216 24.2734 22.804 24.0063C22.8881 23.7396 22.9323 23.4554 22.9323 23.1632V3.83672C22.9323 3.44771 22.8525 3.07222 22.7089 2.73247ZM4.78188 24.4862H3.90527C3.71924 24.4858 3.54683 24.4493 3.38882 24.3826C3.15264 24.2824 2.94878 24.1138 2.80522 23.9018C2.73389 23.796 2.67778 23.6805 2.6396 23.5565C2.60137 23.4329 2.58013 23.3012 2.58013 23.1632V3.83672C2.58013 3.65239 2.61753 3.48037 2.68374 3.32236C2.78398 3.08662 2.9522 2.88281 3.16455 2.73965C3.2707 2.66826 3.38628 2.61177 3.51025 2.57314C3.63428 2.53491 3.76597 2.51406 3.90527 2.51367H4.78193L4.78188 24.4862ZM21.4177 23.1633C21.4177 23.3476 21.3813 23.5196 21.3149 23.6776C21.2147 23.9138 21.0457 24.1172 20.8341 24.2608C20.728 24.3322 20.6116 24.3882 20.4884 24.4269C20.3636 24.4651 20.2328 24.4859 20.0935 24.4863H5.65347V2.51372H20.0935C20.2786 2.51416 20.4511 2.55112 20.6091 2.61782C20.846 2.71763 21.0499 2.88667 21.1927 3.09819C21.264 3.20396 21.3209 3.31992 21.3592 3.44346C21.3974 3.56748 21.4178 3.69834 21.4178 3.83677V23.1633H21.4177Z" fill="#1D2036" stroke="#1D2036"/>
</svg>
