<svg width="13" height="12" viewBox="0 0 13 12" fill="none" xmlns="http://www.w3.org/2000/svg">
<path d="M10.0993 3.93867L8.73362 2.57299C8.06709 1.90648 7.73385 1.57323 7.34955 1.44836C7.01154 1.33853 6.64739 1.33853 6.30938 1.44836C5.92509 1.57323 5.59185 1.90648 4.92533 2.57299L4.02441 3.47391M1.5 11.0474L1.52662 10.8611C1.62082 10.2017 1.66792 9.872 1.77506 9.56417C1.87013 9.29101 2 9.03126 2.16147 8.79138C2.34343 8.52097 2.57893 8.28546 3.04993 7.81449L9.58457 1.27981C10.0228 0.841627 10.7332 0.841627 11.1714 1.27981C11.6095 1.71798 11.6095 2.42841 11.1714 2.86659L4.51681 9.52114C4.08951 9.94846 3.87587 10.1621 3.63252 10.332C3.41652 10.4828 3.18356 10.6077 2.93842 10.7042C2.66225 10.8129 2.36606 10.8727 1.77373 10.9922L1.5 11.0474Z" stroke="#2F88FF" stroke-width="1.12202" stroke-linecap="round" stroke-linejoin="round"/>
</svg>
