<svg width="15" height="15" viewBox="0 0 15 15" fill="none" xmlns="http://www.w3.org/2000/svg">
<path d="M13.9386 3.99115L7.57855 10.3511C6.94522 10.9844 5.0652 11.2778 4.6452 10.8578C4.2252 10.4378 4.51187 8.55778 5.1452 7.92445L11.5119 1.55779C11.6689 1.3865 11.859 1.24881 12.0707 1.15301C12.2824 1.05721 12.5113 1.00527 12.7436 1.00038C12.9759 0.995494 13.2068 1.03772 13.4224 1.12453C13.6379 1.21133 13.8336 1.34093 13.9977 1.50547C14.1618 1.67 14.2908 1.86607 14.377 2.08184C14.4632 2.29762 14.5049 2.52862 14.4994 2.76092C14.4938 2.99322 14.4412 3.22201 14.3449 3.43345C14.2485 3.64488 14.1103 3.83461 13.9386 3.99115Z" stroke="white" stroke-linecap="round" stroke-linejoin="round"/>
<path d="M7.08398 2.39062H3.75065C3.0434 2.39062 2.36517 2.67157 1.86507 3.17167C1.36498 3.67177 1.08398 4.35005 1.08398 5.05729V11.724C1.08398 12.4312 1.36498 13.1095 1.86507 13.6096C2.36517 14.1097 3.0434 14.3906 3.75065 14.3906H11.084C12.5573 14.3906 13.084 13.1906 13.084 11.724V8.39063" stroke="white" stroke-linecap="round" stroke-linejoin="round"/>
</svg>
