<svg width="16" height="16" viewBox="0 0 16 16" fill="none" xmlns="http://www.w3.org/2000/svg">
<path d="M14.8146 0.708998H10.0444C9.65424 0.7074 9.27595 0.843048 8.97571 1.09221C8.67548 1.34136 8.47242 1.68816 8.40206 2.07192L7.77512 5.51331C7.73179 5.75308 7.74168 5.99943 7.80409 6.23495C7.8665 6.47047 7.97991 6.6894 8.13629 6.87624C8.29353 7.06317 8.48958 7.21364 8.71081 7.3172C8.93205 7.42075 9.17317 7.47492 9.41744 7.47593H11.4073L11.237 7.92569C11.1112 8.25918 11.0675 8.61804 11.1096 8.97196C11.1517 9.32589 11.2783 9.6645 11.4788 9.95919C11.6792 10.2539 11.9477 10.496 12.2614 10.6652C12.5751 10.8343 12.925 10.9254 13.2813 10.9309C13.4136 10.932 13.5433 10.8945 13.6546 10.8231C13.7659 10.7517 13.8541 10.6495 13.9083 10.5289L15.4348 7.08068C15.4695 7.00556 15.4903 6.92473 15.4961 6.84216V1.39046C15.4961 1.20973 15.4243 1.03639 15.2965 0.908594C15.1687 0.780795 14.9954 0.708998 14.8146 0.708998ZM14.1332 6.65817L12.8861 9.47261C12.7644 9.40639 12.6595 9.31314 12.5794 9.20003C12.4992 9.0865 12.4485 8.95482 12.4319 8.81683C12.4152 8.67884 12.4331 8.53887 12.484 8.40953L12.743 7.72807C12.8111 7.55133 12.8343 7.36045 12.8105 7.17253C12.7867 6.98462 12.7167 6.80555 12.6067 6.65136C12.4983 6.49776 12.3543 6.37283 12.1869 6.28735C12.0195 6.20187 11.8338 6.1584 11.6458 6.1607H9.40381C9.35854 6.16083 9.31378 6.15115 9.27261 6.13233C9.23143 6.1135 9.19483 6.08599 9.1653 6.05167C9.1124 5.979 9.09036 5.88837 9.10397 5.79953L9.73092 2.39221C9.72798 2.34998 9.73402 2.3076 9.74865 2.26787C9.76327 2.22814 9.78614 2.19195 9.81575 2.16169C9.84536 2.13144 9.88105 2.1078 9.92045 2.09232C9.95986 2.07685 10.0021 2.0699 10.0444 2.07192H14.1332V6.65817ZM6.59619 8.92063H4.62676L4.79712 8.47086C4.92108 8.13542 4.96223 7.77502 4.91707 7.42027C4.87192 7.06553 4.74179 6.72692 4.53775 6.43324C4.3337 6.13955 4.06178 5.89947 3.74508 5.73338C3.42838 5.56729 3.07627 5.4801 2.71866 5.47924C2.58642 5.47819 2.45673 5.51565 2.3454 5.58704C2.23408 5.65844 2.14593 5.76068 2.09172 5.8813L0.565238 9.3295C0.526187 9.41516 0.505304 9.50797 0.503906 9.60209V15.0538C0.503906 15.2345 0.575703 15.4079 0.703502 15.5357C0.831301 15.6635 1.00463 15.7353 1.18537 15.7353H5.95561C6.34576 15.7369 6.72405 15.6012 7.02429 15.352C7.32453 15.1029 7.52758 14.7561 7.59794 14.3723L8.22488 10.965C8.26821 10.7253 8.25832 10.4789 8.19591 10.2434C8.1335 10.0079 8.02009 9.78893 7.86371 9.60209C7.71594 9.40187 7.52562 9.2369 7.30645 9.11907C7.08727 9.00123 6.8447 8.93346 6.59619 8.92063ZM6.26908 14.0861C6.25738 14.1595 6.21883 14.226 6.16091 14.2726C6.10298 14.3192 6.02982 14.3426 5.95561 14.3383H1.86683V9.75201L3.11391 6.93757C3.23562 7.0038 3.34053 7.09705 3.42057 7.21016C3.50077 7.32368 3.55147 7.45536 3.56813 7.59335C3.58478 7.73134 3.56686 7.87131 3.51597 8.00065L3.25702 8.68212C3.18889 8.85885 3.16568 9.04973 3.18947 9.23765C3.21326 9.42556 3.2833 9.60464 3.39331 9.75883C3.50013 9.91494 3.64355 10.0425 3.81105 10.1304C3.97854 10.2183 4.16501 10.2639 4.35417 10.2631H6.59619C6.64146 10.263 6.68622 10.2727 6.72739 10.2915C6.76857 10.3103 6.80517 10.3378 6.8347 10.3721C6.8876 10.4448 6.90964 10.5354 6.89603 10.6243L6.26908 14.0861Z" fill="#1D2036"/>
</svg>
