<svg width="28" height="28" viewBox="0 0 28 28" fill="none" xmlns="http://www.w3.org/2000/svg">
<rect x="0.5" y="0.5" width="27" height="27" rx="13.5" fill="#1D2036"/>
<rect x="0.5" y="0.5" width="27" height="27" rx="13.5" stroke="white"/>
<path d="M13.9994 16.5202C15.0432 16.5202 15.8894 15.6741 15.8894 14.6302C15.8894 13.5864 15.0432 12.7402 13.9994 12.7402C12.9555 12.7402 12.1094 13.5864 12.1094 14.6302C12.1094 15.6741 12.9555 16.5202 13.9994 16.5202Z" stroke="white" stroke-width="1.26" stroke-linecap="round" stroke-linejoin="round"/>
<path d="M8.33008 17.0249V12.2369C8.33008 11.5313 8.33008 11.1784 8.46741 10.9089C8.58821 10.6718 8.78096 10.4791 9.01805 10.3583C9.28758 10.2209 9.64041 10.2209 10.3461 10.2209H11.0105C11.088 10.2209 11.1267 10.2209 11.1624 10.2168C11.3488 10.1955 11.516 10.0922 11.6185 9.93497C11.6381 9.90485 11.6554 9.8702 11.6901 9.80094C11.7594 9.66239 11.794 9.59312 11.8333 9.53286C12.0382 9.21849 12.3726 9.01183 12.7454 8.96912C12.8169 8.96094 12.8943 8.96094 13.0492 8.96094H14.9509C15.1059 8.96094 15.1833 8.96094 15.2547 8.96912C15.6276 9.01183 15.962 9.21849 16.1669 9.53286C16.2061 9.59311 16.2408 9.66241 16.3101 9.80094C16.3447 9.87021 16.362 9.90485 16.3817 9.93497C16.4842 10.0922 16.6513 10.1955 16.8377 10.2168C16.8735 10.2209 16.9122 10.2209 16.9897 10.2209H17.6541C18.3597 10.2209 18.7126 10.2209 18.9821 10.3583C19.2192 10.4791 19.412 10.6718 19.5327 10.9089C19.6701 11.1784 19.6701 11.5313 19.6701 12.2369V17.0249C19.6701 17.7306 19.6701 18.0835 19.5327 18.353C19.412 18.59 19.2192 18.7828 18.9821 18.9036C18.7126 19.0409 18.3597 19.0409 17.6541 19.0409H10.3461C9.64041 19.0409 9.28758 19.0409 9.01805 18.9036C8.78096 18.7828 8.58821 18.59 8.46741 18.353C8.33008 18.0835 8.33008 17.7306 8.33008 17.0249Z" stroke="white" stroke-width="1.26" stroke-linecap="round" stroke-linejoin="round"/>
</svg>
