<svg width="25" height="26" viewBox="0 0 25 26" fill="none" xmlns="http://www.w3.org/2000/svg">
<rect y="0.5" width="25" height="25" rx="12.5" fill="#F0F0F0"/>
<path d="M11.9541 11.8173C11.9541 12.1185 12.1983 12.3627 12.4995 12.3627C12.8008 12.3627 13.045 12.1185 13.045 11.8173H11.9541ZM13.045 7.54544C13.045 7.2442 12.8008 7 12.4995 7C12.1983 7 11.9541 7.2442 11.9541 7.54544H13.045ZM10.5438 9.48106C10.818 9.35622 10.939 9.03277 10.8142 8.75862C10.6893 8.48447 10.3659 8.36343 10.0917 8.48827L10.5438 9.48106ZM7.40879 13.4798L6.86328 13.477L6.86339 13.4861L7.40879 13.4798ZM12.4995 18.4542L12.5058 17.9088C12.5017 17.9088 12.4974 17.9088 12.4933 17.9088L12.4995 18.4542ZM17.5903 13.4798L18.1358 13.4861L18.1357 13.477L17.5903 13.4798ZM14.9073 8.48827C14.6331 8.36343 14.3097 8.48447 14.1849 8.75862C14.0601 9.03277 14.1811 9.35622 14.4553 9.48106L14.9073 8.48827ZM13.045 11.8173V7.54544H11.9541V11.8173H13.045ZM10.0917 8.48827C8.1349 9.37935 6.87455 11.3268 6.86328 13.477L7.95422 13.4826C7.96326 11.7579 8.97417 10.1958 10.5438 9.48106L10.0917 8.48827ZM6.86339 13.4861C6.89924 16.5667 9.4253 19.035 12.5058 18.9996L12.4933 17.9088C10.0151 17.9373 7.98304 15.9516 7.95419 13.4735L6.86339 13.4861ZM12.4933 18.9996C15.5738 19.035 18.1 16.5667 18.1358 13.4861L17.0449 13.4735C17.0161 15.9516 14.984 17.9373 12.5058 17.9088L12.4933 18.9996ZM18.1357 13.477C18.1245 11.3268 16.8642 9.37935 14.9073 8.48827L14.4553 9.48106C16.0249 10.1958 17.0358 11.7579 17.0449 13.4826L18.1357 13.477Z" fill="#5B5B5B"/>
</svg>
