<svg width="25" height="26" viewBox="0 0 25 26" fill="none" xmlns="http://www.w3.org/2000/svg">
<rect y="0.5" width="25" height="25" rx="12.5" fill="#F0F0F0"/>
<path d="M10.55 19.5H14.45C17.7 19.5 19 18.2 19 14.95V11.05C19 7.8 17.7 6.5 14.45 6.5H10.55C7.3 6.5 6 7.8 6 11.05V14.95C6 18.2 7.3 19.5 10.55 19.5Z" stroke="#5B5B5B" stroke-width="0.835677" stroke-linecap="round" stroke-linejoin="round"/>
<path d="M14.8223 17.2245V14.6895" stroke="#5B5B5B" stroke-width="0.835677" stroke-miterlimit="10" stroke-linecap="round" stroke-linejoin="round"/>
<path d="M14.8223 10.0409V8.77344" stroke="#5B5B5B" stroke-width="0.835677" stroke-miterlimit="10" stroke-linecap="round" stroke-linejoin="round"/>
<path d="M14.8228 13.421C15.7561 13.421 16.5128 12.6644 16.5128 11.731C16.5128 10.7977 15.7561 10.041 14.8228 10.041C13.8894 10.041 13.1328 10.7977 13.1328 11.731C13.1328 12.6644 13.8894 13.421 14.8228 13.421Z" stroke="#5B5B5B" stroke-width="0.835677" stroke-miterlimit="10" stroke-linecap="round" stroke-linejoin="round"/>
<path d="M10.1816 17.2265V15.959" stroke="#5B5B5B" stroke-width="0.835677" stroke-miterlimit="10" stroke-linecap="round" stroke-linejoin="round"/>
<path d="M10.1816 11.3084V8.77344" stroke="#5B5B5B" stroke-width="0.835677" stroke-miterlimit="10" stroke-linecap="round" stroke-linejoin="round"/>
<path d="M10.1802 15.9601C11.1136 15.9601 11.8703 15.2034 11.8703 14.2701C11.8703 13.3367 11.1136 12.5801 10.1802 12.5801C9.24687 12.5801 8.49023 13.3367 8.49023 14.2701C8.49023 15.2034 9.24687 15.9601 10.1802 15.9601Z" stroke="#5B5B5B" stroke-width="0.835677" stroke-miterlimit="10" stroke-linecap="round" stroke-linejoin="round"/>
</svg>
