<svg width="25" height="26" viewBox="0 0 25 26" fill="none" xmlns="http://www.w3.org/2000/svg">
<rect y="0.5" width="25" height="25" rx="12.5" fill="#F0F0F0"/>
<path d="M18.9984 13.0015C18.9976 14.5011 18.4785 15.9543 17.5289 17.115C16.5794 18.2756 15.2578 19.0723 13.7881 19.3701C12.3184 19.6679 10.7909 19.4484 9.46445 18.7489C8.13802 18.0494 7.0942 16.9128 6.50984 15.5317C6.17145 14.7312 5.99805 13.8706 6.00002 13.0015C6.00002 12.8808 6.04798 12.765 6.13335 12.6796C6.21872 12.5943 6.33451 12.5463 6.45524 12.5463C6.57597 12.5463 6.69176 12.5943 6.77713 12.6796C6.86251 12.765 6.91047 12.8808 6.91047 13.0015C6.91147 14.2909 7.35807 15.5402 8.17464 16.538C8.9912 17.5358 10.1275 18.2206 11.3912 18.4766C12.6548 18.7326 13.9681 18.544 15.1086 17.9427C16.2492 17.3414 17.1468 16.3644 17.6495 15.1771C18.1039 14.0994 18.2089 12.9063 17.9498 11.7657C17.6906 10.6252 17.0804 9.59464 16.2048 8.81909C15.3293 8.04355 14.2327 7.56207 13.0692 7.44242C11.9057 7.32277 10.734 7.57097 9.71899 8.1521C9.14211 8.48438 8.62872 8.91632 8.20267 9.42787H9.25022C9.37084 9.42787 9.48653 9.47579 9.57182 9.56109C9.65711 9.64638 9.70503 9.76206 9.70503 9.88269C9.70503 10.0033 9.65711 10.119 9.57182 10.2043C9.48653 10.2896 9.37084 10.3375 9.25022 10.3375H7.1075C7.0477 10.3376 6.98847 10.3259 6.9332 10.3031C6.87792 10.2803 6.82769 10.2468 6.78537 10.2046C6.74304 10.1623 6.70947 10.1122 6.68656 10.0569C6.66365 10.0017 6.65186 9.94249 6.65186 9.88269V7.73915C6.65186 7.61842 6.69982 7.50263 6.7852 7.41726C6.87057 7.33189 6.98635 7.28392 7.10709 7.28392C7.22782 7.28392 7.34361 7.33189 7.42898 7.41726C7.51435 7.50263 7.56231 7.61842 7.56231 7.73915V8.77521C8.17165 8.06168 8.9286 7.4889 9.78088 7.09642C10.6332 6.70395 11.5605 6.50112 12.4988 6.50196C13.3525 6.50131 14.198 6.66898 14.9868 6.99539C15.7757 7.32179 16.4924 7.80052 17.0961 8.40419C17.6998 9.00786 18.1785 9.72463 18.5049 10.5135C18.8313 11.3023 18.999 12.1478 18.9984 13.0015Z" fill="#5B5B5B"/>
<path d="M10.1557 15.8301C10.1217 15.8301 10.0877 15.8173 10.0622 15.7876C10.0366 15.7621 10.0239 15.7281 10.0281 15.6898L10.2959 11.5757C10.3002 11.5077 10.3554 11.4567 10.4234 11.4567H11.5454V11.4397C11.5454 11.1592 11.6559 10.9 11.8514 10.7002C12.0512 10.5089 12.3105 10.3984 12.591 10.3984C13.1647 10.3984 13.6365 10.8659 13.6365 11.444C13.6365 11.4482 13.6322 11.4525 13.6322 11.4567V11.461H14.7585C14.8265 11.461 14.8818 11.512 14.886 11.58L15.1495 15.6643C15.1538 15.6771 15.1538 15.6856 15.1538 15.6983C15.1495 15.7706 15.0943 15.8301 15.022 15.8301H10.1557ZM10.2917 15.5751H14.886L14.6395 11.716H13.6322V12.022H13.6365C13.7045 12.0687 13.7427 12.1367 13.7427 12.2132C13.7427 12.345 13.6365 12.4512 13.5047 12.4512C13.373 12.4512 13.2667 12.345 13.2667 12.2132C13.2667 12.1367 13.305 12.0687 13.373 12.022H13.3772V11.716H11.8004V12.022H11.8047C11.8727 12.0687 11.9109 12.1367 11.9109 12.2132C11.9109 12.345 11.8047 12.4512 11.6729 12.4512C11.5412 12.4512 11.4349 12.345 11.4349 12.2132C11.4349 12.1367 11.4732 12.0687 11.5412 12.022H11.5454V11.716H10.5382L10.2917 15.5751ZM12.591 10.6577C12.1575 10.6577 11.8004 11.0105 11.8004 11.4482V11.4652H13.3857L13.3815 11.4567V11.4482C13.3815 11.0105 13.0245 10.6577 12.591 10.6577Z" fill="#5B5B5B" stroke="#5B5B5B" stroke-width="0.366174"/>
</svg>
