<svg width="25" height="26" viewBox="0 0 25 26" fill="none" xmlns="http://www.w3.org/2000/svg">
<rect y="0.5" width="25" height="25" rx="12.5" fill="#F0F0F0"/>
<path d="M11.2666 7.05468C10.9904 7.05468 10.8042 7.27387 10.8042 7.54389V9.87409C10.8042 10.1391 10.668 10.2658 10.459 10.2658C10.2682 10.2658 10.1556 10.1084 10.1556 9.92148L10.1452 7.50086C10.1452 7.19542 9.87868 7 9.63132 7C9.38386 7 9.11743 7.19542 9.11743 7.50086V9.92148C9.11743 10.1084 8.99433 10.2658 8.80348 10.2658C8.59482 10.2658 8.45846 10.1391 8.45846 9.87409V7.54389C8.45846 7.27387 8.27229 7.05468 7.99601 7.05468C7.71952 7.05515 7.57226 7.29311 7.54229 7.5265C7.51231 7.7601 7.35889 9.42838 7.34208 10.4946C7.32504 11.5611 8.07371 12.1849 8.50022 12.383C8.79183 12.5185 9.00291 12.8097 9.00291 13.1601L8.82844 19H10.4341L10.2597 13.1601C10.2597 12.8098 10.4706 12.5185 10.7622 12.383C11.1888 12.1849 11.9375 11.5611 11.9206 10.4946C11.9037 9.42838 11.7505 7.7601 11.7203 7.5265C11.6902 7.29311 11.543 7.05515 11.2666 7.05468Z" fill="#5B5B5B"/>
<path d="M15.3695 7.0918C14.2586 7.0918 13.0801 8.27703 13.0801 10.1389C13.0801 11.2054 13.8861 12.0712 14.2385 12.3826C14.583 12.6874 14.7411 12.8093 14.7411 13.1596L14.5667 18.9996H16.1724L15.9978 13.1596C15.9978 12.8093 16.1561 12.6874 16.5007 12.3826C16.8526 12.0712 17.6587 11.2054 17.6587 10.1389C17.6587 8.27703 16.4803 7.0918 15.3695 7.0918Z" fill="#5B5B5B"/>
</svg>
