<svg width="25" height="26" viewBox="0 0 25 26" fill="none" xmlns="http://www.w3.org/2000/svg">
<rect y="0.5" width="25" height="25" rx="12.5" fill="#F0F0F0"/>
<path fill-rule="evenodd" clip-rule="evenodd" d="M15.4758 15.8H9.52578V11.6C9.52578 9.7338 11.0133 8.8 12.5 8.8H12.5015C13.9883 8.8 15.4758 9.7338 15.4758 11.6V15.8ZM13.2445 17.9C13.2445 18.2864 12.9113 18.6 12.5008 18.6C12.0902 18.6 11.757 18.2864 11.757 17.9V17.2H13.2445V17.9ZM17.707 15.8C17.2965 15.8 16.9633 15.4864 16.9633 15.1V11.6C16.9633 9.1129 15.2021 7.73249 13.2445 7.45529V6.7C13.2445 6.3136 12.9113 6 12.5008 6C12.0902 6 11.757 6.3136 11.757 6.7V7.45529C9.79948 7.73249 8.03828 9.1129 8.03828 11.6V15.1C8.03828 15.4864 7.70508 15.8 7.29453 15.8C6.88398 15.8 6.55078 16.1136 6.55078 16.5C6.55078 16.8864 6.88398 17.2 7.29453 17.2H10.2695V17.9C10.2695 19.0599 11.2684 20 12.5008 20C13.7332 20 14.732 19.0599 14.732 17.9V17.2H17.707C18.1176 17.2 18.4508 16.8864 18.4508 16.5C18.4508 16.1136 18.1176 15.8 17.707 15.8Z" fill="#5B5B5B" stroke="#F0F0F0" stroke-width="0.4"/>
</svg>
