<svg width="25" height="26" viewBox="0 0 25 26" fill="none" xmlns="http://www.w3.org/2000/svg">
<rect y="0.5" width="25" height="25" rx="12.5" fill="#F0F0F0"/>
<path fill-rule="evenodd" clip-rule="evenodd" d="M5.62891 17.0945C5.62891 13.7347 8.08336 10.9687 11.2905 10.3868V8.91804C11.2905 7.74021 12.6452 7.07765 13.5749 7.80078L18.8232 11.8828C19.5518 12.4494 19.5518 13.5506 18.8232 14.1173L13.575 18.1992C12.6452 18.9223 11.2906 18.2598 11.2906 17.0819V15.8427C9.86953 16.1155 8.75069 16.8472 8.09977 17.8337C7.72512 18.4014 7.07935 18.5192 6.61004 18.3871C6.13514 18.2535 5.62898 17.8002 5.62891 17.0945ZM12.8025 8.7939C12.6992 8.71356 12.5487 8.78717 12.5487 8.91804V11.3749C12.5487 11.4618 12.4778 11.532 12.391 11.5343C10.0896 11.5961 8.1312 13.0072 7.30575 14.9914C7.18154 15.2899 7.08298 15.6015 7.01277 15.9234C6.93458 16.2819 6.89154 16.6531 6.88739 17.0336C6.88717 17.0539 6.88706 17.0742 6.88706 17.0945C6.88706 17.1794 7.00292 17.2115 7.04965 17.1407C7.05984 17.1253 7.07012 17.1099 7.08048 17.0945C7.08047 17.0945 7.08048 17.0945 7.08048 17.0945C7.28618 16.7898 7.52279 16.508 7.78659 16.251C7.96584 16.0765 8.15763 15.9134 8.36083 15.7624C9.44036 14.9601 10.8417 14.4986 12.3912 14.4693C12.4781 14.4677 12.5487 14.5383 12.5487 14.6251V17.0819C12.5487 17.2128 12.6993 17.2864 12.8026 17.2061L18.0508 13.1241C18.1318 13.0612 18.1318 12.9388 18.0508 12.8759L12.8025 8.7939Z" fill="#5B5B5B"/>
<path d="M7.08048 17.0945C7.07012 17.1099 7.05984 17.1253 7.04965 17.1407C7.00292 17.2115 6.88706 17.1794 6.88706 17.0945C6.88706 17.0742 6.88717 17.0539 6.88739 17.0336C6.89154 16.6531 6.93458 16.2819 7.01277 15.9234C7.08298 15.6015 7.18154 15.2899 7.30575 14.9914C8.1312 13.0072 10.0896 11.5961 12.391 11.5343C12.4778 11.532 12.5487 11.4618 12.5487 11.3749V8.91804C12.5487 8.78717 12.6992 8.71356 12.8025 8.7939L18.0508 12.8759C18.1318 12.9388 18.1318 13.0612 18.0508 13.1241L12.8026 17.2061C12.6993 17.2864 12.5487 17.2128 12.5487 17.0819V14.6251C12.5487 14.5383 12.4781 14.4677 12.3912 14.4693C10.8417 14.4986 9.44036 14.9601 8.36083 15.7624C8.15763 15.9134 7.96584 16.0765 7.78659 16.251C7.52279 16.508 7.28618 16.7898 7.08048 17.0945ZM7.08048 17.0945C7.08047 17.0945 7.08048 17.0945 7.08048 17.0945ZM5.62891 17.0945C5.62891 13.7347 8.08336 10.9687 11.2905 10.3868V8.91804C11.2905 7.74021 12.6452 7.07765 13.5749 7.80078L18.8232 11.8828C19.5518 12.4494 19.5518 13.5506 18.8232 14.1173L13.575 18.1992C12.6452 18.9223 11.2906 18.2598 11.2906 17.0819V15.8427C9.86953 16.1155 8.75069 16.8472 8.09977 17.8337C7.72512 18.4014 7.07935 18.5192 6.61004 18.3871C6.13514 18.2535 5.62898 17.8002 5.62891 17.0945Z" stroke="#F0F0F0" stroke-width="0.3"/>
</svg>
