<svg width="22" height="24" viewBox="0 0 22 24" fill="none" xmlns="http://www.w3.org/2000/svg">
<path fill-rule="evenodd" clip-rule="evenodd" d="M4.60465 11.8582C4.60465 11.1281 4.72591 10.4281 4.94233 9.77163L1.15423 6.87891C0.415953 8.37789 0 10.0669 0 11.8582C0 13.6478 0.415442 15.3359 1.1527 16.8338L4.93874 13.9355C4.72437 13.282 4.60465 12.5847 4.60465 11.8582Z" fill="#FBBC05"/>
<path fill-rule="evenodd" clip-rule="evenodd" d="M11.2559 5.21726C12.8419 5.21726 14.2745 5.77925 15.4001 6.69888L18.6745 3.4291C16.6791 1.69204 14.121 0.619141 11.2559 0.619141C6.80779 0.619141 2.9849 3.16292 1.1543 6.87974L4.94239 9.77246C5.81523 7.12293 8.30327 5.21726 11.2559 5.21726Z" fill="#EB4335"/>
<path fill-rule="evenodd" clip-rule="evenodd" d="M11.2559 18.5005C8.30327 18.5005 5.81523 16.5949 4.94239 13.9453L1.1543 16.8375C2.9849 20.5549 6.80779 23.0986 11.2559 23.0986C14.0013 23.0986 16.6223 22.1238 18.5896 20.2974L14.9938 17.5175C13.9793 18.1567 12.7017 18.5005 11.2559 18.5005Z" fill="#34A853"/>
<path fill-rule="evenodd" clip-rule="evenodd" d="M22 11.8581C22 11.1939 21.8977 10.4786 21.7442 9.81445H11.2559V14.1571H17.2931C16.9912 15.6377 16.1695 16.776 14.9938 17.5168L18.5895 20.2966C20.656 18.3787 22 15.5217 22 11.8581Z" fill="#4285F4"/>
</svg>
